<mxfile host="app.diagrams.net" modified="2024-05-19T19:37:29.417Z" agent="Mozilla/5.0 (Windows NT 10.0; Win64; x64) AppleWebKit/537.36 (KHTML, like Gecko) Chrome/123.0.0.0 Safari/537.36 OPR/109.0.0.0 (Edition Yx GX)" etag="8gScWutUouJVO86grQyn" version="24.2.5" type="device" pages="4">
  <diagram name="Дружба" id="IvW06cHD8dOhP0UtJ3f9">
    <mxGraphModel dx="671" dy="785" grid="1" gridSize="10" guides="1" tooltips="1" connect="1" arrows="1" fold="1" page="1" pageScale="1" pageWidth="827" pageHeight="1169" math="0" shadow="0">
      <root>
        <mxCell id="0" />
        <mxCell id="1" parent="0" />
        <mxCell id="J0MA9VT1loVUlhV2Hlaw-80" value="" style="endArrow=classic;html=1;rounded=0;entryX=0.5;entryY=0;entryDx=0;entryDy=0;exitX=0.5;exitY=1;exitDx=0;exitDy=0;" edge="1" parent="1" source="J0MA9VT1loVUlhV2Hlaw-87" target="J0MA9VT1loVUlhV2Hlaw-83">
          <mxGeometry width="50" height="50" relative="1" as="geometry">
            <mxPoint x="121" y="253" as="sourcePoint" />
            <mxPoint x="120" y="400" as="targetPoint" />
          </mxGeometry>
        </mxCell>
        <mxCell id="J0MA9VT1loVUlhV2Hlaw-81" value="" style="endArrow=classic;html=1;rounded=0;exitX=1;exitY=0.5;exitDx=0;exitDy=0;entryX=0.5;entryY=0;entryDx=0;entryDy=0;" edge="1" parent="1" source="J0MA9VT1loVUlhV2Hlaw-87" target="J0MA9VT1loVUlhV2Hlaw-90">
          <mxGeometry width="50" height="50" relative="1" as="geometry">
            <mxPoint x="160.00000000000006" y="181.96000000000006" as="sourcePoint" />
            <mxPoint x="281.8" y="218.04" as="targetPoint" />
          </mxGeometry>
        </mxCell>
        <mxCell id="J0MA9VT1loVUlhV2Hlaw-85" value="" style="group" vertex="1" connectable="0" parent="1">
          <mxGeometry x="80" y="280" width="80" height="80" as="geometry" />
        </mxCell>
        <mxCell id="J0MA9VT1loVUlhV2Hlaw-83" value="&lt;div&gt;&lt;br&gt;&lt;/div&gt;Jennifer Moritz" style="ellipse;whiteSpace=wrap;html=1;aspect=fixed;" vertex="1" parent="J0MA9VT1loVUlhV2Hlaw-85">
          <mxGeometry width="80" height="80" as="geometry" />
        </mxCell>
        <mxCell id="J0MA9VT1loVUlhV2Hlaw-84" value="6" style="ellipse;whiteSpace=wrap;html=1;aspect=fixed;" vertex="1" parent="J0MA9VT1loVUlhV2Hlaw-85">
          <mxGeometry x="30" y="10" width="20" height="20" as="geometry" />
        </mxCell>
        <mxCell id="J0MA9VT1loVUlhV2Hlaw-86" value="" style="group" vertex="1" connectable="0" parent="1">
          <mxGeometry x="80" y="160" width="80" height="80" as="geometry" />
        </mxCell>
        <mxCell id="J0MA9VT1loVUlhV2Hlaw-87" value="&lt;div&gt;&lt;/div&gt;&lt;div&gt;&lt;br&gt;&lt;/div&gt;&lt;div&gt;John Smith&lt;br&gt;&lt;/div&gt;" style="ellipse;whiteSpace=wrap;html=1;aspect=fixed;" vertex="1" parent="J0MA9VT1loVUlhV2Hlaw-86">
          <mxGeometry width="80" height="80" as="geometry" />
        </mxCell>
        <mxCell id="J0MA9VT1loVUlhV2Hlaw-88" value="1" style="ellipse;whiteSpace=wrap;html=1;aspect=fixed;" vertex="1" parent="J0MA9VT1loVUlhV2Hlaw-86">
          <mxGeometry x="30" y="10" width="20" height="20" as="geometry" />
        </mxCell>
        <mxCell id="J0MA9VT1loVUlhV2Hlaw-89" value="" style="group" vertex="1" connectable="0" parent="1">
          <mxGeometry x="200" y="240" width="80" height="80" as="geometry" />
        </mxCell>
        <mxCell id="J0MA9VT1loVUlhV2Hlaw-90" value="&lt;div&gt;&lt;/div&gt;&lt;div&gt;&lt;br&gt;&lt;/div&gt;&lt;div&gt;Linda Anderson&lt;br&gt;&lt;/div&gt;" style="ellipse;whiteSpace=wrap;html=1;aspect=fixed;" vertex="1" parent="J0MA9VT1loVUlhV2Hlaw-89">
          <mxGeometry width="80" height="80" as="geometry" />
        </mxCell>
        <mxCell id="J0MA9VT1loVUlhV2Hlaw-91" value="8" style="ellipse;whiteSpace=wrap;html=1;aspect=fixed;" vertex="1" parent="J0MA9VT1loVUlhV2Hlaw-89">
          <mxGeometry x="30" y="10" width="20" height="20" as="geometry" />
        </mxCell>
        <mxCell id="J0MA9VT1loVUlhV2Hlaw-92" value="" style="group" vertex="1" connectable="0" parent="1">
          <mxGeometry x="320" y="160" width="80" height="80" as="geometry" />
        </mxCell>
        <mxCell id="J0MA9VT1loVUlhV2Hlaw-93" value="&lt;div&gt;&lt;/div&gt;&lt;div&gt;&lt;br&gt;&lt;/div&gt;&lt;div&gt;James Wilson&lt;br&gt;&lt;/div&gt;" style="ellipse;whiteSpace=wrap;html=1;aspect=fixed;" vertex="1" parent="J0MA9VT1loVUlhV2Hlaw-92">
          <mxGeometry width="80" height="80" as="geometry" />
        </mxCell>
        <mxCell id="J0MA9VT1loVUlhV2Hlaw-94" value="5" style="ellipse;whiteSpace=wrap;html=1;aspect=fixed;" vertex="1" parent="J0MA9VT1loVUlhV2Hlaw-92">
          <mxGeometry x="30" y="10" width="20" height="20" as="geometry" />
        </mxCell>
        <mxCell id="J0MA9VT1loVUlhV2Hlaw-95" value="" style="endArrow=classic;html=1;rounded=0;entryX=0.5;entryY=1;entryDx=0;entryDy=0;exitX=1;exitY=0.5;exitDx=0;exitDy=0;" edge="1" parent="1" source="J0MA9VT1loVUlhV2Hlaw-90" target="J0MA9VT1loVUlhV2Hlaw-93">
          <mxGeometry width="50" height="50" relative="1" as="geometry">
            <mxPoint x="280" y="280" as="sourcePoint" />
            <mxPoint x="280" y="340" as="targetPoint" />
          </mxGeometry>
        </mxCell>
        <mxCell id="J0MA9VT1loVUlhV2Hlaw-98" value="" style="group" vertex="1" connectable="0" parent="1">
          <mxGeometry x="400" y="360" width="80" height="80" as="geometry" />
        </mxCell>
        <mxCell id="J0MA9VT1loVUlhV2Hlaw-99" value="&lt;div&gt;&lt;/div&gt;&lt;div&gt;&lt;br&gt;&lt;/div&gt;&lt;div&gt;Robert Taylor&lt;br&gt;&lt;/div&gt;" style="ellipse;whiteSpace=wrap;html=1;aspect=fixed;" vertex="1" parent="J0MA9VT1loVUlhV2Hlaw-98">
          <mxGeometry width="80" height="80" as="geometry" />
        </mxCell>
        <mxCell id="J0MA9VT1loVUlhV2Hlaw-100" value="7" style="ellipse;whiteSpace=wrap;html=1;aspect=fixed;" vertex="1" parent="J0MA9VT1loVUlhV2Hlaw-98">
          <mxGeometry x="30" y="10" width="20" height="20" as="geometry" />
        </mxCell>
        <mxCell id="J0MA9VT1loVUlhV2Hlaw-101" value="" style="group" vertex="1" connectable="0" parent="1">
          <mxGeometry x="400" y="240" width="80" height="80" as="geometry" />
        </mxCell>
        <mxCell id="J0MA9VT1loVUlhV2Hlaw-102" value="&lt;div&gt;&lt;/div&gt;&lt;div&gt;&lt;br&gt;&lt;/div&gt;&lt;div&gt;William Thomas&lt;br&gt;&lt;/div&gt;" style="ellipse;whiteSpace=wrap;html=1;aspect=fixed;" vertex="1" parent="J0MA9VT1loVUlhV2Hlaw-101">
          <mxGeometry width="80" height="80" as="geometry" />
        </mxCell>
        <mxCell id="J0MA9VT1loVUlhV2Hlaw-103" value="9" style="ellipse;whiteSpace=wrap;html=1;aspect=fixed;" vertex="1" parent="J0MA9VT1loVUlhV2Hlaw-101">
          <mxGeometry x="30" y="10" width="20" height="20" as="geometry" />
        </mxCell>
        <mxCell id="J0MA9VT1loVUlhV2Hlaw-104" value="" style="group" vertex="1" connectable="0" parent="1">
          <mxGeometry x="240" y="360" width="80" height="80" as="geometry" />
        </mxCell>
        <mxCell id="J0MA9VT1loVUlhV2Hlaw-105" value="&lt;div&gt;&lt;/div&gt;&lt;div&gt;&lt;br&gt;&lt;/div&gt;&lt;div&gt;Emily Johnson&lt;br&gt;&lt;/div&gt;" style="ellipse;whiteSpace=wrap;html=1;aspect=fixed;" vertex="1" parent="J0MA9VT1loVUlhV2Hlaw-104">
          <mxGeometry width="80" height="80" as="geometry" />
        </mxCell>
        <mxCell id="J0MA9VT1loVUlhV2Hlaw-106" value="2" style="ellipse;whiteSpace=wrap;html=1;aspect=fixed;" vertex="1" parent="J0MA9VT1loVUlhV2Hlaw-104">
          <mxGeometry x="30" y="10" width="20" height="20" as="geometry" />
        </mxCell>
        <mxCell id="J0MA9VT1loVUlhV2Hlaw-107" value="" style="group" vertex="1" connectable="0" parent="1">
          <mxGeometry x="440" y="120" width="80" height="80" as="geometry" />
        </mxCell>
        <mxCell id="J0MA9VT1loVUlhV2Hlaw-108" value="&lt;div&gt;&lt;/div&gt;&lt;div&gt;&lt;br&gt;&lt;/div&gt;&lt;div&gt;Karen Clark&lt;br&gt;&lt;/div&gt;" style="ellipse;whiteSpace=wrap;html=1;aspect=fixed;" vertex="1" parent="J0MA9VT1loVUlhV2Hlaw-107">
          <mxGeometry width="80" height="80" as="geometry" />
        </mxCell>
        <mxCell id="J0MA9VT1loVUlhV2Hlaw-109" value="10" style="ellipse;whiteSpace=wrap;html=1;aspect=fixed;" vertex="1" parent="J0MA9VT1loVUlhV2Hlaw-107">
          <mxGeometry x="30" y="10" width="20" height="20" as="geometry" />
        </mxCell>
        <mxCell id="J0MA9VT1loVUlhV2Hlaw-110" value="" style="group" vertex="1" connectable="0" parent="1">
          <mxGeometry x="560" y="360" width="80" height="80" as="geometry" />
        </mxCell>
        <mxCell id="J0MA9VT1loVUlhV2Hlaw-111" value="&lt;div&gt;&lt;/div&gt;&lt;div&gt;&lt;br&gt;&lt;/div&gt;&lt;div&gt;Sarah Davis&lt;br&gt;&lt;/div&gt;" style="ellipse;whiteSpace=wrap;html=1;aspect=fixed;" vertex="1" parent="J0MA9VT1loVUlhV2Hlaw-110">
          <mxGeometry width="80" height="80" as="geometry" />
        </mxCell>
        <mxCell id="J0MA9VT1loVUlhV2Hlaw-112" value="4" style="ellipse;whiteSpace=wrap;html=1;aspect=fixed;" vertex="1" parent="J0MA9VT1loVUlhV2Hlaw-110">
          <mxGeometry x="30" y="10" width="20" height="20" as="geometry" />
        </mxCell>
        <mxCell id="J0MA9VT1loVUlhV2Hlaw-113" value="" style="group" vertex="1" connectable="0" parent="1">
          <mxGeometry x="560" y="240" width="80" height="80" as="geometry" />
        </mxCell>
        <mxCell id="J0MA9VT1loVUlhV2Hlaw-114" value="&lt;div&gt;&lt;/div&gt;&lt;div&gt;&lt;br&gt;&lt;/div&gt;&lt;div&gt;Michael Brown&lt;br&gt;&lt;/div&gt;" style="ellipse;whiteSpace=wrap;html=1;aspect=fixed;" vertex="1" parent="J0MA9VT1loVUlhV2Hlaw-113">
          <mxGeometry width="80" height="80" as="geometry" />
        </mxCell>
        <mxCell id="J0MA9VT1loVUlhV2Hlaw-115" value="3" style="ellipse;whiteSpace=wrap;html=1;aspect=fixed;" vertex="1" parent="J0MA9VT1loVUlhV2Hlaw-113">
          <mxGeometry x="30" y="10" width="20" height="20" as="geometry" />
        </mxCell>
        <mxCell id="J0MA9VT1loVUlhV2Hlaw-117" value="" style="endArrow=classic;html=1;rounded=0;exitX=0.5;exitY=1;exitDx=0;exitDy=0;entryX=0;entryY=0.5;entryDx=0;entryDy=0;" edge="1" parent="1" source="J0MA9VT1loVUlhV2Hlaw-93" target="J0MA9VT1loVUlhV2Hlaw-102">
          <mxGeometry width="50" height="50" relative="1" as="geometry">
            <mxPoint x="390" y="460" as="sourcePoint" />
            <mxPoint x="440" y="410" as="targetPoint" />
          </mxGeometry>
        </mxCell>
        <mxCell id="J0MA9VT1loVUlhV2Hlaw-118" value="" style="endArrow=classic;html=1;rounded=0;exitX=1;exitY=0.5;exitDx=0;exitDy=0;entryX=0;entryY=0.5;entryDx=0;entryDy=0;" edge="1" parent="1" source="J0MA9VT1loVUlhV2Hlaw-93" target="J0MA9VT1loVUlhV2Hlaw-108">
          <mxGeometry width="50" height="50" relative="1" as="geometry">
            <mxPoint x="390" y="240" as="sourcePoint" />
            <mxPoint x="440" y="190" as="targetPoint" />
          </mxGeometry>
        </mxCell>
        <mxCell id="J0MA9VT1loVUlhV2Hlaw-119" value="" style="endArrow=classic;html=1;rounded=0;entryX=0;entryY=0.5;entryDx=0;entryDy=0;exitX=1;exitY=0.5;exitDx=0;exitDy=0;" edge="1" parent="1" source="J0MA9VT1loVUlhV2Hlaw-102" target="J0MA9VT1loVUlhV2Hlaw-114">
          <mxGeometry width="50" height="50" relative="1" as="geometry">
            <mxPoint x="390" y="390" as="sourcePoint" />
            <mxPoint x="440" y="340" as="targetPoint" />
          </mxGeometry>
        </mxCell>
        <mxCell id="J0MA9VT1loVUlhV2Hlaw-120" value="" style="endArrow=classic;html=1;rounded=0;entryX=0.5;entryY=0;entryDx=0;entryDy=0;exitX=1;exitY=0.5;exitDx=0;exitDy=0;" edge="1" parent="1" source="J0MA9VT1loVUlhV2Hlaw-108" target="J0MA9VT1loVUlhV2Hlaw-114">
          <mxGeometry width="50" height="50" relative="1" as="geometry">
            <mxPoint x="390" y="390" as="sourcePoint" />
            <mxPoint x="440" y="340" as="targetPoint" />
          </mxGeometry>
        </mxCell>
        <mxCell id="J0MA9VT1loVUlhV2Hlaw-121" value="" style="endArrow=classic;html=1;rounded=0;entryX=0.5;entryY=0;entryDx=0;entryDy=0;exitX=0.5;exitY=1;exitDx=0;exitDy=0;" edge="1" parent="1" source="J0MA9VT1loVUlhV2Hlaw-114" target="J0MA9VT1loVUlhV2Hlaw-111">
          <mxGeometry width="50" height="50" relative="1" as="geometry">
            <mxPoint x="390" y="390" as="sourcePoint" />
            <mxPoint x="440" y="340" as="targetPoint" />
          </mxGeometry>
        </mxCell>
        <mxCell id="J0MA9VT1loVUlhV2Hlaw-122" value="" style="endArrow=classic;html=1;rounded=0;exitX=0.5;exitY=1;exitDx=0;exitDy=0;entryX=0.5;entryY=0;entryDx=0;entryDy=0;" edge="1" parent="1" source="J0MA9VT1loVUlhV2Hlaw-90" target="J0MA9VT1loVUlhV2Hlaw-105">
          <mxGeometry width="50" height="50" relative="1" as="geometry">
            <mxPoint x="390" y="390" as="sourcePoint" />
            <mxPoint x="440" y="340" as="targetPoint" />
          </mxGeometry>
        </mxCell>
        <mxCell id="J0MA9VT1loVUlhV2Hlaw-124" value="" style="endArrow=classic;html=1;rounded=0;entryX=0.5;entryY=0;entryDx=0;entryDy=0;exitX=0.5;exitY=1;exitDx=0;exitDy=0;" edge="1" parent="1" source="J0MA9VT1loVUlhV2Hlaw-102" target="J0MA9VT1loVUlhV2Hlaw-99">
          <mxGeometry width="50" height="50" relative="1" as="geometry">
            <mxPoint x="390" y="390" as="sourcePoint" />
            <mxPoint x="440" y="340" as="targetPoint" />
          </mxGeometry>
        </mxCell>
      </root>
    </mxGraphModel>
  </diagram>
  <diagram id="gRjZSikOGeEftwp310DU" name="Используемые приложения">
    <mxGraphModel dx="1497" dy="785" grid="1" gridSize="10" guides="1" tooltips="1" connect="1" arrows="1" fold="1" page="1" pageScale="1" pageWidth="827" pageHeight="1169" math="0" shadow="0">
      <root>
        <mxCell id="0" />
        <mxCell id="1" parent="0" />
        <mxCell id="cycwzt6EKxcIMxOoSIeX-1" value="" style="endArrow=classic;html=1;rounded=0;entryX=0;entryY=0.5;entryDx=0;entryDy=0;exitX=1;exitY=0.5;exitDx=0;exitDy=0;" edge="1" parent="1" source="cycwzt6EKxcIMxOoSIeX-7" target="cycwzt6EKxcIMxOoSIeX-41">
          <mxGeometry width="50" height="50" relative="1" as="geometry">
            <mxPoint x="121" y="253" as="sourcePoint" />
            <mxPoint x="120" y="400" as="targetPoint" />
          </mxGeometry>
        </mxCell>
        <mxCell id="cycwzt6EKxcIMxOoSIeX-3" value="" style="group" vertex="1" connectable="0" parent="1">
          <mxGeometry x="80" y="320" width="80" height="80" as="geometry" />
        </mxCell>
        <mxCell id="cycwzt6EKxcIMxOoSIeX-4" value="&lt;div&gt;&lt;br&gt;&lt;/div&gt;Jennifer Moritz" style="ellipse;whiteSpace=wrap;html=1;aspect=fixed;" vertex="1" parent="cycwzt6EKxcIMxOoSIeX-3">
          <mxGeometry width="80" height="80" as="geometry" />
        </mxCell>
        <mxCell id="cycwzt6EKxcIMxOoSIeX-5" value="6" style="ellipse;whiteSpace=wrap;html=1;aspect=fixed;" vertex="1" parent="cycwzt6EKxcIMxOoSIeX-3">
          <mxGeometry x="30" y="10" width="20" height="20" as="geometry" />
        </mxCell>
        <mxCell id="cycwzt6EKxcIMxOoSIeX-6" value="" style="group" vertex="1" connectable="0" parent="1">
          <mxGeometry x="-40" y="560" width="80" height="80" as="geometry" />
        </mxCell>
        <mxCell id="cycwzt6EKxcIMxOoSIeX-7" value="&lt;div&gt;&lt;/div&gt;&lt;div&gt;&lt;br&gt;&lt;/div&gt;&lt;div&gt;John Smith&lt;br&gt;&lt;/div&gt;" style="ellipse;whiteSpace=wrap;html=1;aspect=fixed;" vertex="1" parent="cycwzt6EKxcIMxOoSIeX-6">
          <mxGeometry width="80" height="80" as="geometry" />
        </mxCell>
        <mxCell id="cycwzt6EKxcIMxOoSIeX-8" value="1" style="ellipse;whiteSpace=wrap;html=1;aspect=fixed;" vertex="1" parent="cycwzt6EKxcIMxOoSIeX-6">
          <mxGeometry x="30" y="10" width="20" height="20" as="geometry" />
        </mxCell>
        <mxCell id="cycwzt6EKxcIMxOoSIeX-9" value="" style="group" vertex="1" connectable="0" parent="1">
          <mxGeometry x="200" y="320" width="80" height="80" as="geometry" />
        </mxCell>
        <mxCell id="cycwzt6EKxcIMxOoSIeX-10" value="&lt;div&gt;&lt;/div&gt;&lt;div&gt;&lt;br&gt;&lt;/div&gt;&lt;div&gt;Linda Anderson&lt;br&gt;&lt;/div&gt;" style="ellipse;whiteSpace=wrap;html=1;aspect=fixed;" vertex="1" parent="cycwzt6EKxcIMxOoSIeX-9">
          <mxGeometry width="80" height="80" as="geometry" />
        </mxCell>
        <mxCell id="cycwzt6EKxcIMxOoSIeX-11" value="8" style="ellipse;whiteSpace=wrap;html=1;aspect=fixed;" vertex="1" parent="cycwzt6EKxcIMxOoSIeX-9">
          <mxGeometry x="30" y="10" width="20" height="20" as="geometry" />
        </mxCell>
        <mxCell id="cycwzt6EKxcIMxOoSIeX-12" value="" style="group" vertex="1" connectable="0" parent="1">
          <mxGeometry x="320" y="320" width="80" height="80" as="geometry" />
        </mxCell>
        <mxCell id="cycwzt6EKxcIMxOoSIeX-13" value="&lt;div&gt;&lt;/div&gt;&lt;div&gt;&lt;br&gt;&lt;/div&gt;&lt;div&gt;James Wilson&lt;br&gt;&lt;/div&gt;" style="ellipse;whiteSpace=wrap;html=1;aspect=fixed;" vertex="1" parent="cycwzt6EKxcIMxOoSIeX-12">
          <mxGeometry width="80" height="80" as="geometry" />
        </mxCell>
        <mxCell id="cycwzt6EKxcIMxOoSIeX-14" value="5" style="ellipse;whiteSpace=wrap;html=1;aspect=fixed;" vertex="1" parent="cycwzt6EKxcIMxOoSIeX-12">
          <mxGeometry x="30" y="10" width="20" height="20" as="geometry" />
        </mxCell>
        <mxCell id="cycwzt6EKxcIMxOoSIeX-16" value="" style="group" vertex="1" connectable="0" parent="1">
          <mxGeometry x="680" y="560" width="80" height="80" as="geometry" />
        </mxCell>
        <mxCell id="cycwzt6EKxcIMxOoSIeX-17" value="&lt;div&gt;&lt;/div&gt;&lt;div&gt;&lt;br&gt;&lt;/div&gt;&lt;div&gt;Robert Taylor&lt;br&gt;&lt;/div&gt;" style="ellipse;whiteSpace=wrap;html=1;aspect=fixed;" vertex="1" parent="cycwzt6EKxcIMxOoSIeX-16">
          <mxGeometry width="80" height="80" as="geometry" />
        </mxCell>
        <mxCell id="cycwzt6EKxcIMxOoSIeX-18" value="7" style="ellipse;whiteSpace=wrap;html=1;aspect=fixed;" vertex="1" parent="cycwzt6EKxcIMxOoSIeX-16">
          <mxGeometry x="30" y="10" width="20" height="20" as="geometry" />
        </mxCell>
        <mxCell id="cycwzt6EKxcIMxOoSIeX-19" value="" style="group" vertex="1" connectable="0" parent="1">
          <mxGeometry x="560" y="320" width="80" height="80" as="geometry" />
        </mxCell>
        <mxCell id="cycwzt6EKxcIMxOoSIeX-20" value="&lt;div&gt;&lt;/div&gt;&lt;div&gt;&lt;br&gt;&lt;/div&gt;&lt;div&gt;William Thomas&lt;br&gt;&lt;/div&gt;" style="ellipse;whiteSpace=wrap;html=1;aspect=fixed;" vertex="1" parent="cycwzt6EKxcIMxOoSIeX-19">
          <mxGeometry width="80" height="80" as="geometry" />
        </mxCell>
        <mxCell id="cycwzt6EKxcIMxOoSIeX-21" value="9" style="ellipse;whiteSpace=wrap;html=1;aspect=fixed;" vertex="1" parent="cycwzt6EKxcIMxOoSIeX-19">
          <mxGeometry x="30" y="10" width="20" height="20" as="geometry" />
        </mxCell>
        <mxCell id="cycwzt6EKxcIMxOoSIeX-22" value="" style="group" vertex="1" connectable="0" parent="1">
          <mxGeometry x="260" y="800" width="80" height="80" as="geometry" />
        </mxCell>
        <mxCell id="cycwzt6EKxcIMxOoSIeX-23" value="&lt;div&gt;&lt;/div&gt;&lt;div&gt;&lt;br&gt;&lt;/div&gt;&lt;div&gt;Emily Johnson&lt;br&gt;&lt;/div&gt;" style="ellipse;whiteSpace=wrap;html=1;aspect=fixed;" vertex="1" parent="cycwzt6EKxcIMxOoSIeX-22">
          <mxGeometry width="80" height="80" as="geometry" />
        </mxCell>
        <mxCell id="cycwzt6EKxcIMxOoSIeX-24" value="2" style="ellipse;whiteSpace=wrap;html=1;aspect=fixed;" vertex="1" parent="cycwzt6EKxcIMxOoSIeX-22">
          <mxGeometry x="30" y="10" width="20" height="20" as="geometry" />
        </mxCell>
        <mxCell id="cycwzt6EKxcIMxOoSIeX-25" value="" style="group" vertex="1" connectable="0" parent="1">
          <mxGeometry x="440" y="320" width="80" height="80" as="geometry" />
        </mxCell>
        <mxCell id="cycwzt6EKxcIMxOoSIeX-26" value="&lt;div&gt;&lt;/div&gt;&lt;div&gt;&lt;br&gt;&lt;/div&gt;&lt;div&gt;Karen Clark&lt;br&gt;&lt;/div&gt;" style="ellipse;whiteSpace=wrap;html=1;aspect=fixed;" vertex="1" parent="cycwzt6EKxcIMxOoSIeX-25">
          <mxGeometry width="80" height="80" as="geometry" />
        </mxCell>
        <mxCell id="cycwzt6EKxcIMxOoSIeX-27" value="10" style="ellipse;whiteSpace=wrap;html=1;aspect=fixed;" vertex="1" parent="cycwzt6EKxcIMxOoSIeX-25">
          <mxGeometry x="30" y="10" width="20" height="20" as="geometry" />
        </mxCell>
        <mxCell id="cycwzt6EKxcIMxOoSIeX-28" value="" style="group" vertex="1" connectable="0" parent="1">
          <mxGeometry x="80" y="800" width="80" height="80" as="geometry" />
        </mxCell>
        <mxCell id="cycwzt6EKxcIMxOoSIeX-29" value="&lt;div&gt;&lt;/div&gt;&lt;div&gt;&lt;br&gt;&lt;/div&gt;&lt;div&gt;Sarah Davis&lt;br&gt;&lt;/div&gt;" style="ellipse;whiteSpace=wrap;html=1;aspect=fixed;" vertex="1" parent="cycwzt6EKxcIMxOoSIeX-28">
          <mxGeometry width="80" height="80" as="geometry" />
        </mxCell>
        <mxCell id="cycwzt6EKxcIMxOoSIeX-30" value="4" style="ellipse;whiteSpace=wrap;html=1;aspect=fixed;" vertex="1" parent="cycwzt6EKxcIMxOoSIeX-28">
          <mxGeometry x="30" y="10" width="20" height="20" as="geometry" />
        </mxCell>
        <mxCell id="cycwzt6EKxcIMxOoSIeX-31" value="" style="group" vertex="1" connectable="0" parent="1">
          <mxGeometry x="440" y="800" width="80" height="80" as="geometry" />
        </mxCell>
        <mxCell id="cycwzt6EKxcIMxOoSIeX-32" value="&lt;div&gt;&lt;/div&gt;&lt;div&gt;&lt;br&gt;&lt;/div&gt;&lt;div&gt;Michael Brown&lt;br&gt;&lt;/div&gt;" style="ellipse;whiteSpace=wrap;html=1;aspect=fixed;" vertex="1" parent="cycwzt6EKxcIMxOoSIeX-31">
          <mxGeometry width="80" height="80" as="geometry" />
        </mxCell>
        <mxCell id="cycwzt6EKxcIMxOoSIeX-33" value="3" style="ellipse;whiteSpace=wrap;html=1;aspect=fixed;" vertex="1" parent="cycwzt6EKxcIMxOoSIeX-31">
          <mxGeometry x="30" y="10" width="20" height="20" as="geometry" />
        </mxCell>
        <mxCell id="cycwzt6EKxcIMxOoSIeX-36" value="" style="endArrow=classic;html=1;rounded=0;entryX=0.5;entryY=0;entryDx=0;entryDy=0;exitX=0.5;exitY=1;exitDx=0;exitDy=0;" edge="1" parent="1" source="cycwzt6EKxcIMxOoSIeX-20" target="cycwzt6EKxcIMxOoSIeX-53">
          <mxGeometry width="50" height="50" relative="1" as="geometry">
            <mxPoint x="390" y="390" as="sourcePoint" />
            <mxPoint x="440" y="340" as="targetPoint" />
          </mxGeometry>
        </mxCell>
        <mxCell id="cycwzt6EKxcIMxOoSIeX-39" value="" style="endArrow=classic;html=1;rounded=0;exitX=0.5;exitY=1;exitDx=0;exitDy=0;entryX=0.5;entryY=0;entryDx=0;entryDy=0;" edge="1" parent="1" source="cycwzt6EKxcIMxOoSIeX-10" target="cycwzt6EKxcIMxOoSIeX-45">
          <mxGeometry width="50" height="50" relative="1" as="geometry">
            <mxPoint x="390" y="390" as="sourcePoint" />
            <mxPoint x="440" y="340" as="targetPoint" />
          </mxGeometry>
        </mxCell>
        <mxCell id="cycwzt6EKxcIMxOoSIeX-43" value="" style="group" vertex="1" connectable="0" parent="1">
          <mxGeometry x="80" y="480" width="80" height="80" as="geometry" />
        </mxCell>
        <mxCell id="cycwzt6EKxcIMxOoSIeX-41" value="&lt;div&gt;&lt;br&gt;&lt;/div&gt;&lt;div&gt;&lt;br&gt;&lt;/div&gt;&lt;div&gt;Music Maker&lt;br&gt;&lt;/div&gt;" style="whiteSpace=wrap;html=1;aspect=fixed;" vertex="1" parent="cycwzt6EKxcIMxOoSIeX-43">
          <mxGeometry width="80" height="80" as="geometry" />
        </mxCell>
        <mxCell id="cycwzt6EKxcIMxOoSIeX-42" value="1" style="whiteSpace=wrap;html=1;aspect=fixed;" vertex="1" parent="cycwzt6EKxcIMxOoSIeX-43">
          <mxGeometry x="25" y="10" width="30" height="30" as="geometry" />
        </mxCell>
        <mxCell id="cycwzt6EKxcIMxOoSIeX-44" value="" style="group" vertex="1" connectable="0" parent="1">
          <mxGeometry x="200" y="480" width="80" height="80" as="geometry" />
        </mxCell>
        <mxCell id="cycwzt6EKxcIMxOoSIeX-45" value="&lt;div&gt;&lt;br&gt;&lt;/div&gt;&lt;div&gt;&lt;br&gt;&lt;/div&gt;&lt;div&gt;Beat Builder&lt;br&gt;&lt;/div&gt;" style="whiteSpace=wrap;html=1;aspect=fixed;" vertex="1" parent="cycwzt6EKxcIMxOoSIeX-44">
          <mxGeometry width="80" height="80" as="geometry" />
        </mxCell>
        <mxCell id="cycwzt6EKxcIMxOoSIeX-46" value="2" style="whiteSpace=wrap;html=1;aspect=fixed;" vertex="1" parent="cycwzt6EKxcIMxOoSIeX-44">
          <mxGeometry x="25" y="10" width="30" height="30" as="geometry" />
        </mxCell>
        <mxCell id="cycwzt6EKxcIMxOoSIeX-48" value="" style="group" vertex="1" connectable="0" parent="1">
          <mxGeometry x="320" y="480" width="80" height="80" as="geometry" />
        </mxCell>
        <mxCell id="cycwzt6EKxcIMxOoSIeX-49" value="&lt;div&gt;&lt;br&gt;&lt;/div&gt;&lt;div&gt;&lt;br&gt;&lt;/div&gt;&lt;div&gt;Sound Studio&lt;br&gt;&lt;/div&gt;" style="whiteSpace=wrap;html=1;aspect=fixed;" vertex="1" parent="cycwzt6EKxcIMxOoSIeX-48">
          <mxGeometry width="80" height="80" as="geometry" />
        </mxCell>
        <mxCell id="cycwzt6EKxcIMxOoSIeX-50" value="3" style="whiteSpace=wrap;html=1;aspect=fixed;" vertex="1" parent="cycwzt6EKxcIMxOoSIeX-48">
          <mxGeometry x="25" y="10" width="30" height="30" as="geometry" />
        </mxCell>
        <mxCell id="cycwzt6EKxcIMxOoSIeX-52" value="" style="group" vertex="1" connectable="0" parent="1">
          <mxGeometry x="440" y="480" width="80" height="80" as="geometry" />
        </mxCell>
        <mxCell id="cycwzt6EKxcIMxOoSIeX-53" value="&lt;div&gt;&lt;br&gt;&lt;/div&gt;&lt;div&gt;&lt;br&gt;&lt;/div&gt;&lt;div&gt;&lt;br&gt;&lt;/div&gt;&lt;div&gt;Mel&lt;span style=&quot;background-color: initial;&quot;&gt;ody Creator&lt;/span&gt;&lt;/div&gt;" style="whiteSpace=wrap;html=1;aspect=fixed;" vertex="1" parent="cycwzt6EKxcIMxOoSIeX-52">
          <mxGeometry width="80" height="80" as="geometry" />
        </mxCell>
        <mxCell id="cycwzt6EKxcIMxOoSIeX-54" value="4" style="whiteSpace=wrap;html=1;aspect=fixed;" vertex="1" parent="cycwzt6EKxcIMxOoSIeX-52">
          <mxGeometry x="25" y="10" width="30" height="30" as="geometry" />
        </mxCell>
        <mxCell id="cycwzt6EKxcIMxOoSIeX-55" value="" style="group" vertex="1" connectable="0" parent="1">
          <mxGeometry x="560" y="480" width="80" height="80" as="geometry" />
        </mxCell>
        <mxCell id="cycwzt6EKxcIMxOoSIeX-56" value="&lt;div&gt;&lt;br&gt;&lt;/div&gt;&lt;div&gt;&lt;br&gt;&lt;/div&gt;&lt;div&gt;Track Master&lt;br&gt;&lt;/div&gt;" style="whiteSpace=wrap;html=1;aspect=fixed;" vertex="1" parent="cycwzt6EKxcIMxOoSIeX-55">
          <mxGeometry width="80" height="80" as="geometry" />
        </mxCell>
        <mxCell id="cycwzt6EKxcIMxOoSIeX-57" value="5" style="whiteSpace=wrap;html=1;aspect=fixed;" vertex="1" parent="cycwzt6EKxcIMxOoSIeX-55">
          <mxGeometry x="25" y="10" width="30" height="30" as="geometry" />
        </mxCell>
        <mxCell id="cycwzt6EKxcIMxOoSIeX-58" value="" style="group" vertex="1" connectable="0" parent="1">
          <mxGeometry x="80" y="640" width="80" height="80" as="geometry" />
        </mxCell>
        <mxCell id="cycwzt6EKxcIMxOoSIeX-59" value="&lt;div&gt;&lt;br&gt;&lt;/div&gt;&lt;div&gt;&lt;br&gt;&lt;/div&gt;&lt;div&gt;&lt;br&gt;&lt;/div&gt;&lt;div&gt;Rhythm Composer&lt;br&gt;&lt;/div&gt;" style="whiteSpace=wrap;html=1;aspect=fixed;" vertex="1" parent="cycwzt6EKxcIMxOoSIeX-58">
          <mxGeometry width="80" height="80" as="geometry" />
        </mxCell>
        <mxCell id="cycwzt6EKxcIMxOoSIeX-60" value="6" style="whiteSpace=wrap;html=1;aspect=fixed;" vertex="1" parent="cycwzt6EKxcIMxOoSIeX-58">
          <mxGeometry x="25" y="10" width="30" height="30" as="geometry" />
        </mxCell>
        <mxCell id="cycwzt6EKxcIMxOoSIeX-62" value="" style="group" vertex="1" connectable="0" parent="1">
          <mxGeometry x="200" y="640" width="80" height="80" as="geometry" />
        </mxCell>
        <mxCell id="cycwzt6EKxcIMxOoSIeX-63" value="&lt;div&gt;&lt;br&gt;&lt;/div&gt;&lt;div&gt;&lt;br&gt;&lt;/div&gt;&lt;div&gt;&lt;br&gt;&lt;/div&gt;&lt;div&gt;Songwriter Pro&lt;br&gt;&lt;/div&gt;" style="whiteSpace=wrap;html=1;aspect=fixed;" vertex="1" parent="cycwzt6EKxcIMxOoSIeX-62">
          <mxGeometry width="80" height="80" as="geometry" />
        </mxCell>
        <mxCell id="cycwzt6EKxcIMxOoSIeX-64" value="7" style="whiteSpace=wrap;html=1;aspect=fixed;" vertex="1" parent="cycwzt6EKxcIMxOoSIeX-62">
          <mxGeometry x="25" y="10" width="30" height="30" as="geometry" />
        </mxCell>
        <mxCell id="cycwzt6EKxcIMxOoSIeX-65" value="" style="group" vertex="1" connectable="0" parent="1">
          <mxGeometry x="320" y="640" width="80" height="80" as="geometry" />
        </mxCell>
        <mxCell id="cycwzt6EKxcIMxOoSIeX-66" value="&lt;div&gt;&lt;br&gt;&lt;/div&gt;&lt;div&gt;&lt;br&gt;&lt;/div&gt;&lt;div&gt;&lt;br&gt;&lt;/div&gt;&lt;div&gt;Harmony Genius&lt;br&gt;&lt;/div&gt;" style="whiteSpace=wrap;html=1;aspect=fixed;" vertex="1" parent="cycwzt6EKxcIMxOoSIeX-65">
          <mxGeometry width="80" height="80" as="geometry" />
        </mxCell>
        <mxCell id="cycwzt6EKxcIMxOoSIeX-67" value="8" style="whiteSpace=wrap;html=1;aspect=fixed;" vertex="1" parent="cycwzt6EKxcIMxOoSIeX-65">
          <mxGeometry x="25" y="10" width="30" height="30" as="geometry" />
        </mxCell>
        <mxCell id="cycwzt6EKxcIMxOoSIeX-68" value="" style="group" vertex="1" connectable="0" parent="1">
          <mxGeometry x="440" y="640" width="80" height="80" as="geometry" />
        </mxCell>
        <mxCell id="cycwzt6EKxcIMxOoSIeX-69" value="&lt;div&gt;&lt;br&gt;&lt;/div&gt;&lt;div&gt;&lt;br&gt;&lt;/div&gt;&lt;div&gt;&lt;br&gt;&lt;/div&gt;&lt;div&gt;Chord Composer&lt;br&gt;&lt;/div&gt;" style="whiteSpace=wrap;html=1;aspect=fixed;" vertex="1" parent="cycwzt6EKxcIMxOoSIeX-68">
          <mxGeometry width="80" height="80" as="geometry" />
        </mxCell>
        <mxCell id="cycwzt6EKxcIMxOoSIeX-70" value="9" style="whiteSpace=wrap;html=1;aspect=fixed;" vertex="1" parent="cycwzt6EKxcIMxOoSIeX-68">
          <mxGeometry x="25" y="10" width="30" height="30" as="geometry" />
        </mxCell>
        <mxCell id="cycwzt6EKxcIMxOoSIeX-71" value="" style="group" vertex="1" connectable="0" parent="1">
          <mxGeometry x="560" y="640" width="80" height="80" as="geometry" />
        </mxCell>
        <mxCell id="cycwzt6EKxcIMxOoSIeX-72" value="&lt;div&gt;&lt;br&gt;&lt;/div&gt;&lt;div&gt;&lt;br&gt;&lt;/div&gt;&lt;div&gt;Lyricist Tool&lt;br&gt;&lt;/div&gt;" style="whiteSpace=wrap;html=1;aspect=fixed;" vertex="1" parent="cycwzt6EKxcIMxOoSIeX-71">
          <mxGeometry width="80" height="80" as="geometry" />
        </mxCell>
        <mxCell id="cycwzt6EKxcIMxOoSIeX-73" value="10" style="whiteSpace=wrap;html=1;aspect=fixed;" vertex="1" parent="cycwzt6EKxcIMxOoSIeX-71">
          <mxGeometry x="25" y="10" width="30" height="30" as="geometry" />
        </mxCell>
        <mxCell id="cycwzt6EKxcIMxOoSIeX-76" value="" style="endArrow=classic;html=1;rounded=0;exitX=0.5;exitY=1;exitDx=0;exitDy=0;entryX=0.5;entryY=0;entryDx=0;entryDy=0;" edge="1" parent="1" source="cycwzt6EKxcIMxOoSIeX-4" target="cycwzt6EKxcIMxOoSIeX-41">
          <mxGeometry width="50" height="50" relative="1" as="geometry">
            <mxPoint x="340" y="450" as="sourcePoint" />
            <mxPoint x="390" y="400" as="targetPoint" />
          </mxGeometry>
        </mxCell>
        <mxCell id="cycwzt6EKxcIMxOoSIeX-77" value="" style="endArrow=classic;html=1;rounded=0;exitX=1;exitY=0.5;exitDx=0;exitDy=0;entryX=0;entryY=0.5;entryDx=0;entryDy=0;" edge="1" parent="1" source="cycwzt6EKxcIMxOoSIeX-7" target="cycwzt6EKxcIMxOoSIeX-59">
          <mxGeometry width="50" height="50" relative="1" as="geometry">
            <mxPoint x="220" y="550" as="sourcePoint" />
            <mxPoint x="270" y="500" as="targetPoint" />
          </mxGeometry>
        </mxCell>
        <mxCell id="cycwzt6EKxcIMxOoSIeX-78" value="" style="endArrow=classic;html=1;rounded=0;exitX=0.5;exitY=0;exitDx=0;exitDy=0;entryX=0.5;entryY=1;entryDx=0;entryDy=0;" edge="1" parent="1" source="cycwzt6EKxcIMxOoSIeX-23" target="cycwzt6EKxcIMxOoSIeX-63">
          <mxGeometry width="50" height="50" relative="1" as="geometry">
            <mxPoint x="350" y="550" as="sourcePoint" />
            <mxPoint x="400" y="500" as="targetPoint" />
          </mxGeometry>
        </mxCell>
        <mxCell id="cycwzt6EKxcIMxOoSIeX-79" value="" style="endArrow=classic;html=1;rounded=0;exitX=0.5;exitY=0;exitDx=0;exitDy=0;entryX=0.5;entryY=1;entryDx=0;entryDy=0;" edge="1" parent="1" source="cycwzt6EKxcIMxOoSIeX-23" target="cycwzt6EKxcIMxOoSIeX-66">
          <mxGeometry width="50" height="50" relative="1" as="geometry">
            <mxPoint x="350" y="550" as="sourcePoint" />
            <mxPoint x="400" y="500" as="targetPoint" />
          </mxGeometry>
        </mxCell>
        <mxCell id="cycwzt6EKxcIMxOoSIeX-80" value="" style="endArrow=classic;html=1;rounded=0;exitX=0;exitY=0.5;exitDx=0;exitDy=0;entryX=1;entryY=0.5;entryDx=0;entryDy=0;" edge="1" parent="1" source="cycwzt6EKxcIMxOoSIeX-17" target="cycwzt6EKxcIMxOoSIeX-56">
          <mxGeometry width="50" height="50" relative="1" as="geometry">
            <mxPoint x="350" y="550" as="sourcePoint" />
            <mxPoint x="400" y="500" as="targetPoint" />
          </mxGeometry>
        </mxCell>
        <mxCell id="cycwzt6EKxcIMxOoSIeX-81" value="" style="endArrow=classic;html=1;rounded=0;exitX=0;exitY=0.5;exitDx=0;exitDy=0;entryX=1;entryY=0.5;entryDx=0;entryDy=0;" edge="1" parent="1" source="cycwzt6EKxcIMxOoSIeX-17" target="cycwzt6EKxcIMxOoSIeX-72">
          <mxGeometry width="50" height="50" relative="1" as="geometry">
            <mxPoint x="350" y="550" as="sourcePoint" />
            <mxPoint x="400" y="500" as="targetPoint" />
          </mxGeometry>
        </mxCell>
        <mxCell id="cycwzt6EKxcIMxOoSIeX-82" value="" style="endArrow=classic;html=1;rounded=0;exitX=0.5;exitY=1;exitDx=0;exitDy=0;entryX=0.5;entryY=0;entryDx=0;entryDy=0;" edge="1" parent="1" source="cycwzt6EKxcIMxOoSIeX-20" target="cycwzt6EKxcIMxOoSIeX-56">
          <mxGeometry width="50" height="50" relative="1" as="geometry">
            <mxPoint x="350" y="550" as="sourcePoint" />
            <mxPoint x="400" y="500" as="targetPoint" />
          </mxGeometry>
        </mxCell>
        <mxCell id="cycwzt6EKxcIMxOoSIeX-83" value="" style="endArrow=classic;html=1;rounded=0;exitX=0.5;exitY=0;exitDx=0;exitDy=0;entryX=0.5;entryY=1;entryDx=0;entryDy=0;" edge="1" parent="1" source="cycwzt6EKxcIMxOoSIeX-29" target="cycwzt6EKxcIMxOoSIeX-59">
          <mxGeometry width="50" height="50" relative="1" as="geometry">
            <mxPoint x="350" y="670" as="sourcePoint" />
            <mxPoint x="400" y="620" as="targetPoint" />
          </mxGeometry>
        </mxCell>
        <mxCell id="oplvwiK_jiAgKe8jJQe7-2" value="" style="endArrow=classic;html=1;rounded=0;exitX=0.5;exitY=0;exitDx=0;exitDy=0;entryX=0.5;entryY=1;entryDx=0;entryDy=0;" edge="1" parent="1" source="cycwzt6EKxcIMxOoSIeX-32" target="cycwzt6EKxcIMxOoSIeX-69">
          <mxGeometry width="50" height="50" relative="1" as="geometry">
            <mxPoint x="350" y="670" as="sourcePoint" />
            <mxPoint x="400" y="620" as="targetPoint" />
          </mxGeometry>
        </mxCell>
        <mxCell id="oplvwiK_jiAgKe8jJQe7-3" value="" style="endArrow=classic;html=1;rounded=0;entryX=0.5;entryY=0;entryDx=0;entryDy=0;exitX=0.5;exitY=1;exitDx=0;exitDy=0;" edge="1" parent="1" source="cycwzt6EKxcIMxOoSIeX-26" target="cycwzt6EKxcIMxOoSIeX-53">
          <mxGeometry width="50" height="50" relative="1" as="geometry">
            <mxPoint x="350" y="570" as="sourcePoint" />
            <mxPoint x="400" y="520" as="targetPoint" />
          </mxGeometry>
        </mxCell>
        <mxCell id="oplvwiK_jiAgKe8jJQe7-4" value="" style="endArrow=classic;html=1;rounded=0;exitX=0.5;exitY=1;exitDx=0;exitDy=0;entryX=0.5;entryY=0;entryDx=0;entryDy=0;" edge="1" parent="1" source="cycwzt6EKxcIMxOoSIeX-26" target="cycwzt6EKxcIMxOoSIeX-49">
          <mxGeometry width="50" height="50" relative="1" as="geometry">
            <mxPoint x="350" y="570" as="sourcePoint" />
            <mxPoint x="400" y="520" as="targetPoint" />
          </mxGeometry>
        </mxCell>
        <mxCell id="oplvwiK_jiAgKe8jJQe7-5" value="" style="endArrow=classic;html=1;rounded=0;exitX=0.5;exitY=1;exitDx=0;exitDy=0;" edge="1" parent="1" source="cycwzt6EKxcIMxOoSIeX-13">
          <mxGeometry width="50" height="50" relative="1" as="geometry">
            <mxPoint x="350" y="570" as="sourcePoint" />
            <mxPoint x="360" y="480" as="targetPoint" />
          </mxGeometry>
        </mxCell>
      </root>
    </mxGraphModel>
  </diagram>
  <diagram id="OpZQZXLeZ-mTY_hFuxPs" name="Созданные треки">
    <mxGraphModel dx="705" dy="826" grid="1" gridSize="10" guides="1" tooltips="1" connect="1" arrows="1" fold="1" page="1" pageScale="1" pageWidth="827" pageHeight="1169" math="0" shadow="0">
      <root>
        <mxCell id="0" />
        <mxCell id="1" parent="0" />
        <mxCell id="bviavr7k6HdkHLCnTUAl-6" value="" style="group" vertex="1" connectable="0" parent="1">
          <mxGeometry x="759" y="280" width="160" height="160" as="geometry" />
        </mxCell>
        <mxCell id="bviavr7k6HdkHLCnTUAl-3" value="&lt;div&gt;&lt;br&gt;&lt;/div&gt;&lt;div&gt;Groove Machine&lt;br&gt;&lt;/div&gt;" style="rhombus;whiteSpace=wrap;html=1;" vertex="1" parent="bviavr7k6HdkHLCnTUAl-6">
          <mxGeometry width="160" height="160" as="geometry" />
        </mxCell>
        <mxCell id="bviavr7k6HdkHLCnTUAl-4" value="2" style="rhombus;whiteSpace=wrap;html=1;" vertex="1" parent="bviavr7k6HdkHLCnTUAl-6">
          <mxGeometry x="60" y="25" width="40" height="40" as="geometry" />
        </mxCell>
        <mxCell id="bviavr7k6HdkHLCnTUAl-7" value="" style="group" vertex="1" connectable="0" parent="1">
          <mxGeometry x="559" y="480" width="160" height="160" as="geometry" />
        </mxCell>
        <mxCell id="bviavr7k6HdkHLCnTUAl-8" value="&lt;div&gt;&lt;br&gt;&lt;/div&gt;&lt;div&gt;Smooth Jazz&lt;br&gt;&lt;/div&gt;" style="rhombus;whiteSpace=wrap;html=1;" vertex="1" parent="bviavr7k6HdkHLCnTUAl-7">
          <mxGeometry width="160" height="160" as="geometry" />
        </mxCell>
        <mxCell id="bviavr7k6HdkHLCnTUAl-9" value="5" style="rhombus;whiteSpace=wrap;html=1;" vertex="1" parent="bviavr7k6HdkHLCnTUAl-7">
          <mxGeometry x="60" y="25" width="40" height="40" as="geometry" />
        </mxCell>
        <mxCell id="bviavr7k6HdkHLCnTUAl-10" value="" style="group" vertex="1" connectable="0" parent="1">
          <mxGeometry x="1360" y="480" width="160" height="160" as="geometry" />
        </mxCell>
        <mxCell id="bviavr7k6HdkHLCnTUAl-11" value="&lt;div&gt;&lt;br&gt;&lt;/div&gt;&lt;div&gt;Electro Pop&lt;br&gt;&lt;/div&gt;" style="rhombus;whiteSpace=wrap;html=1;" vertex="1" parent="bviavr7k6HdkHLCnTUAl-10">
          <mxGeometry width="160" height="160" as="geometry" />
        </mxCell>
        <mxCell id="bviavr7k6HdkHLCnTUAl-12" value="6" style="rhombus;whiteSpace=wrap;html=1;" vertex="1" parent="bviavr7k6HdkHLCnTUAl-10">
          <mxGeometry x="60" y="25" width="40" height="40" as="geometry" />
        </mxCell>
        <mxCell id="bviavr7k6HdkHLCnTUAl-13" value="" style="group" vertex="1" connectable="0" parent="1">
          <mxGeometry x="959" y="280" width="160" height="160" as="geometry" />
        </mxCell>
        <mxCell id="bviavr7k6HdkHLCnTUAl-14" value="&lt;div&gt;&lt;br&gt;&lt;/div&gt;&lt;div&gt;Dreamy Melodies&lt;br&gt;&lt;/div&gt;" style="rhombus;whiteSpace=wrap;html=1;" vertex="1" parent="bviavr7k6HdkHLCnTUAl-13">
          <mxGeometry width="160" height="160" as="geometry" />
        </mxCell>
        <mxCell id="bviavr7k6HdkHLCnTUAl-15" value="3" style="rhombus;whiteSpace=wrap;html=1;" vertex="1" parent="bviavr7k6HdkHLCnTUAl-13">
          <mxGeometry x="60" y="25" width="40" height="40" as="geometry" />
        </mxCell>
        <mxCell id="bviavr7k6HdkHLCnTUAl-16" value="" style="group" vertex="1" connectable="0" parent="1">
          <mxGeometry x="559" y="280" width="160" height="160" as="geometry" />
        </mxCell>
        <mxCell id="bviavr7k6HdkHLCnTUAl-17" value="&lt;div&gt;&lt;br&gt;&lt;/div&gt;&lt;div&gt;&lt;span style=&quot;background-color: initial;&quot;&gt;Summer Vibes&lt;/span&gt;&lt;br&gt;&lt;/div&gt;" style="rhombus;whiteSpace=wrap;html=1;" vertex="1" parent="bviavr7k6HdkHLCnTUAl-16">
          <mxGeometry width="160" height="160" as="geometry" />
        </mxCell>
        <mxCell id="bviavr7k6HdkHLCnTUAl-18" value="1" style="rhombus;whiteSpace=wrap;html=1;" vertex="1" parent="bviavr7k6HdkHLCnTUAl-16">
          <mxGeometry x="60" y="25" width="40" height="40" as="geometry" />
        </mxCell>
        <mxCell id="bviavr7k6HdkHLCnTUAl-19" value="" style="group" vertex="1" connectable="0" parent="1">
          <mxGeometry x="1159" y="280" width="160" height="160" as="geometry" />
        </mxCell>
        <mxCell id="bviavr7k6HdkHLCnTUAl-20" value="&lt;div&gt;&lt;br&gt;&lt;/div&gt;&lt;div&gt;Funky Beats&lt;br&gt;&lt;/div&gt;" style="rhombus;whiteSpace=wrap;html=1;" vertex="1" parent="bviavr7k6HdkHLCnTUAl-19">
          <mxGeometry width="160" height="160" as="geometry" />
        </mxCell>
        <mxCell id="bviavr7k6HdkHLCnTUAl-21" value="4" style="rhombus;whiteSpace=wrap;html=1;" vertex="1" parent="bviavr7k6HdkHLCnTUAl-19">
          <mxGeometry x="60" y="25" width="40" height="40" as="geometry" />
        </mxCell>
        <mxCell id="bviavr7k6HdkHLCnTUAl-22" value="" style="group" vertex="1" connectable="0" parent="1">
          <mxGeometry x="1159" y="480" width="160" height="160" as="geometry" />
        </mxCell>
        <mxCell id="bviavr7k6HdkHLCnTUAl-23" value="&lt;div&gt;&lt;br&gt;&lt;/div&gt;&lt;div&gt;Rock Anthem&lt;br&gt;&lt;/div&gt;" style="rhombus;whiteSpace=wrap;html=1;" vertex="1" parent="bviavr7k6HdkHLCnTUAl-22">
          <mxGeometry width="160" height="160" as="geometry" />
        </mxCell>
        <mxCell id="bviavr7k6HdkHLCnTUAl-24" value="8" style="rhombus;whiteSpace=wrap;html=1;" vertex="1" parent="bviavr7k6HdkHLCnTUAl-22">
          <mxGeometry x="60" y="25" width="40" height="40" as="geometry" />
        </mxCell>
        <mxCell id="bviavr7k6HdkHLCnTUAl-25" value="" style="group" vertex="1" connectable="0" parent="1">
          <mxGeometry x="1360" y="280" width="160" height="160" as="geometry" />
        </mxCell>
        <mxCell id="bviavr7k6HdkHLCnTUAl-26" value="&lt;div&gt;&lt;br&gt;&lt;/div&gt;&lt;div&gt;Classical Sonata&lt;br&gt;&lt;/div&gt;" style="rhombus;whiteSpace=wrap;html=1;" vertex="1" parent="bviavr7k6HdkHLCnTUAl-25">
          <mxGeometry width="160" height="160" as="geometry" />
        </mxCell>
        <mxCell id="bviavr7k6HdkHLCnTUAl-27" value="10" style="rhombus;whiteSpace=wrap;html=1;" vertex="1" parent="bviavr7k6HdkHLCnTUAl-25">
          <mxGeometry x="60" y="25" width="40" height="40" as="geometry" />
        </mxCell>
        <mxCell id="bviavr7k6HdkHLCnTUAl-28" value="" style="group" vertex="1" connectable="0" parent="1">
          <mxGeometry x="959" y="480" width="160" height="160" as="geometry" />
        </mxCell>
        <mxCell id="bviavr7k6HdkHLCnTUAl-29" value="&lt;div&gt;&lt;br&gt;&lt;/div&gt;&lt;div&gt;Acoustic Jam&lt;br&gt;&lt;/div&gt;" style="rhombus;whiteSpace=wrap;html=1;" vertex="1" parent="bviavr7k6HdkHLCnTUAl-28">
          <mxGeometry width="160" height="160" as="geometry" />
        </mxCell>
        <mxCell id="bviavr7k6HdkHLCnTUAl-30" value="7" style="rhombus;whiteSpace=wrap;html=1;" vertex="1" parent="bviavr7k6HdkHLCnTUAl-28">
          <mxGeometry x="60" y="25" width="40" height="40" as="geometry" />
        </mxCell>
        <mxCell id="bviavr7k6HdkHLCnTUAl-31" value="" style="group" vertex="1" connectable="0" parent="1">
          <mxGeometry x="759" y="480" width="160" height="160" as="geometry" />
        </mxCell>
        <mxCell id="bviavr7k6HdkHLCnTUAl-32" value="&lt;div&gt;&lt;br&gt;&lt;/div&gt;&lt;div&gt;Hip Hop Hype&lt;br&gt;&lt;/div&gt;" style="rhombus;whiteSpace=wrap;html=1;" vertex="1" parent="bviavr7k6HdkHLCnTUAl-31">
          <mxGeometry width="160" height="160" as="geometry" />
        </mxCell>
        <mxCell id="bviavr7k6HdkHLCnTUAl-33" value="9" style="rhombus;whiteSpace=wrap;html=1;" vertex="1" parent="bviavr7k6HdkHLCnTUAl-31">
          <mxGeometry x="60" y="25" width="40" height="40" as="geometry" />
        </mxCell>
        <mxCell id="x9O5KHe6BYQCl-vgslEW-2" value="" style="endArrow=classic;html=1;rounded=0;exitX=1;exitY=0.5;exitDx=0;exitDy=0;" edge="1" parent="1" source="x9O5KHe6BYQCl-vgslEW-7">
          <mxGeometry width="50" height="50" relative="1" as="geometry">
            <mxPoint x="560" y="1181.96" as="sourcePoint" />
            <mxPoint x="560" y="360" as="targetPoint" />
          </mxGeometry>
        </mxCell>
        <mxCell id="x9O5KHe6BYQCl-vgslEW-3" value="" style="group" vertex="1" connectable="0" parent="1">
          <mxGeometry x="360" y="520" width="80" height="80" as="geometry" />
        </mxCell>
        <mxCell id="x9O5KHe6BYQCl-vgslEW-4" value="&lt;div&gt;&lt;br&gt;&lt;/div&gt;Jennifer Moritz" style="ellipse;whiteSpace=wrap;html=1;aspect=fixed;" vertex="1" parent="x9O5KHe6BYQCl-vgslEW-3">
          <mxGeometry width="80" height="80" as="geometry" />
        </mxCell>
        <mxCell id="x9O5KHe6BYQCl-vgslEW-5" value="6" style="ellipse;whiteSpace=wrap;html=1;aspect=fixed;" vertex="1" parent="x9O5KHe6BYQCl-vgslEW-3">
          <mxGeometry x="30" y="10" width="20" height="20" as="geometry" />
        </mxCell>
        <mxCell id="x9O5KHe6BYQCl-vgslEW-6" value="" style="group" vertex="1" connectable="0" parent="1">
          <mxGeometry x="360" y="320" width="80" height="80" as="geometry" />
        </mxCell>
        <mxCell id="x9O5KHe6BYQCl-vgslEW-7" value="&lt;div&gt;&lt;/div&gt;&lt;div&gt;&lt;br&gt;&lt;/div&gt;&lt;div&gt;John Smith&lt;br&gt;&lt;/div&gt;" style="ellipse;whiteSpace=wrap;html=1;aspect=fixed;" vertex="1" parent="x9O5KHe6BYQCl-vgslEW-6">
          <mxGeometry width="80" height="80" as="geometry" />
        </mxCell>
        <mxCell id="x9O5KHe6BYQCl-vgslEW-8" value="1" style="ellipse;whiteSpace=wrap;html=1;aspect=fixed;" vertex="1" parent="x9O5KHe6BYQCl-vgslEW-6">
          <mxGeometry x="30" y="10" width="20" height="20" as="geometry" />
        </mxCell>
        <mxCell id="x9O5KHe6BYQCl-vgslEW-9" value="" style="group" vertex="1" connectable="0" parent="1">
          <mxGeometry x="599" y="720" width="80" height="80" as="geometry" />
        </mxCell>
        <mxCell id="x9O5KHe6BYQCl-vgslEW-10" value="&lt;div&gt;&lt;/div&gt;&lt;div&gt;&lt;br&gt;&lt;/div&gt;&lt;div&gt;Linda Anderson&lt;br&gt;&lt;/div&gt;" style="ellipse;whiteSpace=wrap;html=1;aspect=fixed;" vertex="1" parent="x9O5KHe6BYQCl-vgslEW-9">
          <mxGeometry width="80" height="80" as="geometry" />
        </mxCell>
        <mxCell id="x9O5KHe6BYQCl-vgslEW-11" value="8" style="ellipse;whiteSpace=wrap;html=1;aspect=fixed;" vertex="1" parent="x9O5KHe6BYQCl-vgslEW-9">
          <mxGeometry x="30" y="10" width="20" height="20" as="geometry" />
        </mxCell>
        <mxCell id="x9O5KHe6BYQCl-vgslEW-12" value="" style="group" vertex="1" connectable="0" parent="1">
          <mxGeometry x="1200" y="720" width="80" height="80" as="geometry" />
        </mxCell>
        <mxCell id="x9O5KHe6BYQCl-vgslEW-13" value="&lt;div&gt;&lt;/div&gt;&lt;div&gt;&lt;br&gt;&lt;/div&gt;&lt;div&gt;James Wilson&lt;br&gt;&lt;/div&gt;" style="ellipse;whiteSpace=wrap;html=1;aspect=fixed;" vertex="1" parent="x9O5KHe6BYQCl-vgslEW-12">
          <mxGeometry width="80" height="80" as="geometry" />
        </mxCell>
        <mxCell id="x9O5KHe6BYQCl-vgslEW-14" value="5" style="ellipse;whiteSpace=wrap;html=1;aspect=fixed;" vertex="1" parent="x9O5KHe6BYQCl-vgslEW-12">
          <mxGeometry x="30" y="10" width="20" height="20" as="geometry" />
        </mxCell>
        <mxCell id="x9O5KHe6BYQCl-vgslEW-15" value="" style="endArrow=classic;html=1;rounded=0;exitX=0.5;exitY=0;exitDx=0;exitDy=0;" edge="1" parent="1" source="x9O5KHe6BYQCl-vgslEW-10">
          <mxGeometry width="50" height="50" relative="1" as="geometry">
            <mxPoint x="680" y="1280" as="sourcePoint" />
            <mxPoint x="839" y="640" as="targetPoint" />
          </mxGeometry>
        </mxCell>
        <mxCell id="x9O5KHe6BYQCl-vgslEW-16" value="" style="group" vertex="1" connectable="0" parent="1">
          <mxGeometry x="1400" y="720" width="80" height="80" as="geometry" />
        </mxCell>
        <mxCell id="x9O5KHe6BYQCl-vgslEW-17" value="&lt;div&gt;&lt;/div&gt;&lt;div&gt;&lt;br&gt;&lt;/div&gt;&lt;div&gt;Robert Taylor&lt;br&gt;&lt;/div&gt;" style="ellipse;whiteSpace=wrap;html=1;aspect=fixed;" vertex="1" parent="x9O5KHe6BYQCl-vgslEW-16">
          <mxGeometry width="80" height="80" as="geometry" />
        </mxCell>
        <mxCell id="x9O5KHe6BYQCl-vgslEW-18" value="7" style="ellipse;whiteSpace=wrap;html=1;aspect=fixed;" vertex="1" parent="x9O5KHe6BYQCl-vgslEW-16">
          <mxGeometry x="30" y="10" width="20" height="20" as="geometry" />
        </mxCell>
        <mxCell id="x9O5KHe6BYQCl-vgslEW-19" value="" style="group" vertex="1" connectable="0" parent="1">
          <mxGeometry x="759" y="720" width="80" height="80" as="geometry" />
        </mxCell>
        <mxCell id="x9O5KHe6BYQCl-vgslEW-20" value="&lt;div&gt;&lt;/div&gt;&lt;div&gt;&lt;br&gt;&lt;/div&gt;&lt;div&gt;William Thomas&lt;br&gt;&lt;/div&gt;" style="ellipse;whiteSpace=wrap;html=1;aspect=fixed;" vertex="1" parent="x9O5KHe6BYQCl-vgslEW-19">
          <mxGeometry width="80" height="80" as="geometry" />
        </mxCell>
        <mxCell id="x9O5KHe6BYQCl-vgslEW-21" value="9" style="ellipse;whiteSpace=wrap;html=1;aspect=fixed;" vertex="1" parent="x9O5KHe6BYQCl-vgslEW-19">
          <mxGeometry x="30" y="10" width="20" height="20" as="geometry" />
        </mxCell>
        <mxCell id="x9O5KHe6BYQCl-vgslEW-22" value="" style="group" vertex="1" connectable="0" parent="1">
          <mxGeometry x="919" y="720" width="80" height="80" as="geometry" />
        </mxCell>
        <mxCell id="x9O5KHe6BYQCl-vgslEW-23" value="&lt;div&gt;&lt;/div&gt;&lt;div&gt;&lt;br&gt;&lt;/div&gt;&lt;div&gt;Emily Johnson&lt;br&gt;&lt;/div&gt;" style="ellipse;whiteSpace=wrap;html=1;aspect=fixed;" vertex="1" parent="x9O5KHe6BYQCl-vgslEW-22">
          <mxGeometry width="80" height="80" as="geometry" />
        </mxCell>
        <mxCell id="x9O5KHe6BYQCl-vgslEW-24" value="2" style="ellipse;whiteSpace=wrap;html=1;aspect=fixed;" vertex="1" parent="x9O5KHe6BYQCl-vgslEW-22">
          <mxGeometry x="30" y="10" width="20" height="20" as="geometry" />
        </mxCell>
        <mxCell id="x9O5KHe6BYQCl-vgslEW-25" value="" style="group" vertex="1" connectable="0" parent="1">
          <mxGeometry x="1050" y="720" width="80" height="80" as="geometry" />
        </mxCell>
        <mxCell id="x9O5KHe6BYQCl-vgslEW-26" value="&lt;div&gt;&lt;/div&gt;&lt;div&gt;&lt;br&gt;&lt;/div&gt;&lt;div&gt;Karen Clark&lt;br&gt;&lt;/div&gt;" style="ellipse;whiteSpace=wrap;html=1;aspect=fixed;" vertex="1" parent="x9O5KHe6BYQCl-vgslEW-25">
          <mxGeometry width="80" height="80" as="geometry" />
        </mxCell>
        <mxCell id="x9O5KHe6BYQCl-vgslEW-27" value="10" style="ellipse;whiteSpace=wrap;html=1;aspect=fixed;" vertex="1" parent="x9O5KHe6BYQCl-vgslEW-25">
          <mxGeometry x="30" y="10" width="20" height="20" as="geometry" />
        </mxCell>
        <mxCell id="x9O5KHe6BYQCl-vgslEW-28" value="" style="group" vertex="1" connectable="0" parent="1">
          <mxGeometry x="879" y="160" width="80" height="80" as="geometry" />
        </mxCell>
        <mxCell id="x9O5KHe6BYQCl-vgslEW-29" value="&lt;div&gt;&lt;/div&gt;&lt;div&gt;&lt;br&gt;&lt;/div&gt;&lt;div&gt;Sarah Davis&lt;br&gt;&lt;/div&gt;" style="ellipse;whiteSpace=wrap;html=1;aspect=fixed;" vertex="1" parent="x9O5KHe6BYQCl-vgslEW-28">
          <mxGeometry width="80" height="80" as="geometry" />
        </mxCell>
        <mxCell id="x9O5KHe6BYQCl-vgslEW-30" value="4" style="ellipse;whiteSpace=wrap;html=1;aspect=fixed;" vertex="1" parent="x9O5KHe6BYQCl-vgslEW-28">
          <mxGeometry x="30" y="10" width="20" height="20" as="geometry" />
        </mxCell>
        <mxCell id="x9O5KHe6BYQCl-vgslEW-31" value="" style="group" vertex="1" connectable="0" parent="1">
          <mxGeometry x="1280" y="160" width="80" height="80" as="geometry" />
        </mxCell>
        <mxCell id="x9O5KHe6BYQCl-vgslEW-32" value="&lt;div&gt;&lt;/div&gt;&lt;div&gt;&lt;br&gt;&lt;/div&gt;&lt;div&gt;Michael Brown&lt;br&gt;&lt;/div&gt;" style="ellipse;whiteSpace=wrap;html=1;aspect=fixed;" vertex="1" parent="x9O5KHe6BYQCl-vgslEW-31">
          <mxGeometry width="80" height="80" as="geometry" />
        </mxCell>
        <mxCell id="x9O5KHe6BYQCl-vgslEW-33" value="3" style="ellipse;whiteSpace=wrap;html=1;aspect=fixed;" vertex="1" parent="x9O5KHe6BYQCl-vgslEW-31">
          <mxGeometry x="30" y="10" width="20" height="20" as="geometry" />
        </mxCell>
        <mxCell id="x9O5KHe6BYQCl-vgslEW-34" value="" style="endArrow=classic;html=1;rounded=0;exitX=0.5;exitY=0;exitDx=0;exitDy=0;entryX=0.5;entryY=1;entryDx=0;entryDy=0;" edge="1" parent="1" source="x9O5KHe6BYQCl-vgslEW-13" target="bviavr7k6HdkHLCnTUAl-23">
          <mxGeometry width="50" height="50" relative="1" as="geometry">
            <mxPoint x="790" y="1460" as="sourcePoint" />
            <mxPoint x="840" y="1410" as="targetPoint" />
          </mxGeometry>
        </mxCell>
        <mxCell id="x9O5KHe6BYQCl-vgslEW-38" value="" style="endArrow=classic;html=1;rounded=0;entryX=0.5;entryY=0;entryDx=0;entryDy=0;exitX=0.5;exitY=1;exitDx=0;exitDy=0;" edge="1" parent="1" source="x9O5KHe6BYQCl-vgslEW-32" target="bviavr7k6HdkHLCnTUAl-20">
          <mxGeometry width="50" height="50" relative="1" as="geometry">
            <mxPoint x="790" y="1390" as="sourcePoint" />
            <mxPoint x="840" y="1340" as="targetPoint" />
          </mxGeometry>
        </mxCell>
        <mxCell id="x9O5KHe6BYQCl-vgslEW-39" value="" style="endArrow=classic;html=1;rounded=0;exitX=0.5;exitY=0;exitDx=0;exitDy=0;entryX=0.5;entryY=1;entryDx=0;entryDy=0;" edge="1" parent="1" source="x9O5KHe6BYQCl-vgslEW-10" target="bviavr7k6HdkHLCnTUAl-8">
          <mxGeometry width="50" height="50" relative="1" as="geometry">
            <mxPoint x="790" y="1390" as="sourcePoint" />
            <mxPoint x="840" y="1340" as="targetPoint" />
          </mxGeometry>
        </mxCell>
        <mxCell id="x9O5KHe6BYQCl-vgslEW-40" value="" style="endArrow=classic;html=1;rounded=0;entryX=0.5;entryY=1;entryDx=0;entryDy=0;exitX=0.5;exitY=0;exitDx=0;exitDy=0;" edge="1" parent="1" source="x9O5KHe6BYQCl-vgslEW-20" target="bviavr7k6HdkHLCnTUAl-32">
          <mxGeometry width="50" height="50" relative="1" as="geometry">
            <mxPoint x="790" y="1390" as="sourcePoint" />
            <mxPoint x="840" y="1340" as="targetPoint" />
          </mxGeometry>
        </mxCell>
        <mxCell id="x9O5KHe6BYQCl-vgslEW-1" value="" style="endArrow=classic;html=1;rounded=0;exitX=1;exitY=0.5;exitDx=0;exitDy=0;entryX=0;entryY=0.5;entryDx=0;entryDy=0;" edge="1" parent="1" source="x9O5KHe6BYQCl-vgslEW-4" target="bviavr7k6HdkHLCnTUAl-8">
          <mxGeometry width="50" height="50" relative="1" as="geometry">
            <mxPoint x="561" y="1193" as="sourcePoint" />
            <mxPoint x="600" y="500" as="targetPoint" />
          </mxGeometry>
        </mxCell>
        <mxCell id="x9O5KHe6BYQCl-vgslEW-42" value="" style="endArrow=classic;html=1;rounded=0;exitX=1;exitY=0.5;exitDx=0;exitDy=0;entryX=0.5;entryY=1;entryDx=0;entryDy=0;" edge="1" parent="1" source="x9O5KHe6BYQCl-vgslEW-4" target="bviavr7k6HdkHLCnTUAl-17">
          <mxGeometry width="50" height="50" relative="1" as="geometry">
            <mxPoint x="730" y="600" as="sourcePoint" />
            <mxPoint x="780" y="550" as="targetPoint" />
          </mxGeometry>
        </mxCell>
        <mxCell id="x9O5KHe6BYQCl-vgslEW-43" value="" style="endArrow=classic;html=1;rounded=0;exitX=0.5;exitY=0;exitDx=0;exitDy=0;entryX=0.5;entryY=1;entryDx=0;entryDy=0;" edge="1" parent="1" source="x9O5KHe6BYQCl-vgslEW-23" target="bviavr7k6HdkHLCnTUAl-32">
          <mxGeometry width="50" height="50" relative="1" as="geometry">
            <mxPoint x="730" y="840" as="sourcePoint" />
            <mxPoint x="830" y="840" as="targetPoint" />
          </mxGeometry>
        </mxCell>
        <mxCell id="x9O5KHe6BYQCl-vgslEW-44" value="" style="endArrow=classic;html=1;rounded=0;exitX=0.5;exitY=0;exitDx=0;exitDy=0;entryX=0.5;entryY=1;entryDx=0;entryDy=0;" edge="1" parent="1" source="x9O5KHe6BYQCl-vgslEW-17" target="bviavr7k6HdkHLCnTUAl-11">
          <mxGeometry width="50" height="50" relative="1" as="geometry">
            <mxPoint x="730" y="600" as="sourcePoint" />
            <mxPoint x="780" y="550" as="targetPoint" />
          </mxGeometry>
        </mxCell>
        <mxCell id="x9O5KHe6BYQCl-vgslEW-46" value="" style="endArrow=classic;html=1;rounded=0;exitX=0.5;exitY=0;exitDx=0;exitDy=0;" edge="1" parent="1" source="x9O5KHe6BYQCl-vgslEW-26">
          <mxGeometry width="50" height="50" relative="1" as="geometry">
            <mxPoint x="730" y="720" as="sourcePoint" />
            <mxPoint x="1040" y="640" as="targetPoint" />
          </mxGeometry>
        </mxCell>
        <mxCell id="x9O5KHe6BYQCl-vgslEW-47" value="" style="endArrow=classic;html=1;rounded=0;entryX=0.5;entryY=0;entryDx=0;entryDy=0;exitX=0.5;exitY=1;exitDx=0;exitDy=0;" edge="1" parent="1" source="x9O5KHe6BYQCl-vgslEW-29" target="bviavr7k6HdkHLCnTUAl-3">
          <mxGeometry width="50" height="50" relative="1" as="geometry">
            <mxPoint x="730" y="600" as="sourcePoint" />
            <mxPoint x="780" y="550" as="targetPoint" />
          </mxGeometry>
        </mxCell>
        <mxCell id="x9O5KHe6BYQCl-vgslEW-48" value="" style="endArrow=classic;html=1;rounded=0;exitX=0.5;exitY=1;exitDx=0;exitDy=0;entryX=0.5;entryY=0;entryDx=0;entryDy=0;" edge="1" parent="1" source="x9O5KHe6BYQCl-vgslEW-29" target="bviavr7k6HdkHLCnTUAl-14">
          <mxGeometry width="50" height="50" relative="1" as="geometry">
            <mxPoint x="730" y="600" as="sourcePoint" />
            <mxPoint x="780" y="550" as="targetPoint" />
          </mxGeometry>
        </mxCell>
        <mxCell id="x9O5KHe6BYQCl-vgslEW-49" value="" style="endArrow=classic;html=1;rounded=0;exitX=0.5;exitY=1;exitDx=0;exitDy=0;entryX=0.5;entryY=0;entryDx=0;entryDy=0;" edge="1" parent="1" source="x9O5KHe6BYQCl-vgslEW-32" target="bviavr7k6HdkHLCnTUAl-26">
          <mxGeometry width="50" height="50" relative="1" as="geometry">
            <mxPoint x="730" y="600" as="sourcePoint" />
            <mxPoint x="1360" y="260" as="targetPoint" />
          </mxGeometry>
        </mxCell>
      </root>
    </mxGraphModel>
  </diagram>
  <diagram id="SZtfgDQeYLdgddudLuu-" name="Оценки">
    <mxGraphModel dx="2722" dy="1328" grid="1" gridSize="10" guides="1" tooltips="1" connect="1" arrows="1" fold="1" page="1" pageScale="1" pageWidth="827" pageHeight="1169" math="0" shadow="0">
      <root>
        <mxCell id="0" />
        <mxCell id="1" parent="0" />
        <mxCell id="GNZZoCPWk4IUXtnZ4bMh-1" value="" style="group" vertex="1" connectable="0" parent="1">
          <mxGeometry x="759" y="280" width="160" height="160" as="geometry" />
        </mxCell>
        <mxCell id="GNZZoCPWk4IUXtnZ4bMh-2" value="&lt;div&gt;&lt;br&gt;&lt;/div&gt;&lt;div&gt;Groove Machine&lt;br&gt;&lt;/div&gt;" style="rhombus;whiteSpace=wrap;html=1;" vertex="1" parent="GNZZoCPWk4IUXtnZ4bMh-1">
          <mxGeometry width="160" height="160" as="geometry" />
        </mxCell>
        <mxCell id="GNZZoCPWk4IUXtnZ4bMh-3" value="2" style="rhombus;whiteSpace=wrap;html=1;" vertex="1" parent="GNZZoCPWk4IUXtnZ4bMh-1">
          <mxGeometry x="60" y="25" width="40" height="40" as="geometry" />
        </mxCell>
        <mxCell id="GNZZoCPWk4IUXtnZ4bMh-4" value="" style="group" vertex="1" connectable="0" parent="1">
          <mxGeometry x="559" y="480" width="160" height="160" as="geometry" />
        </mxCell>
        <mxCell id="GNZZoCPWk4IUXtnZ4bMh-5" value="&lt;div&gt;&lt;br&gt;&lt;/div&gt;&lt;div&gt;Smooth Jazz&lt;br&gt;&lt;/div&gt;" style="rhombus;whiteSpace=wrap;html=1;" vertex="1" parent="GNZZoCPWk4IUXtnZ4bMh-4">
          <mxGeometry width="160" height="160" as="geometry" />
        </mxCell>
        <mxCell id="GNZZoCPWk4IUXtnZ4bMh-6" value="5" style="rhombus;whiteSpace=wrap;html=1;" vertex="1" parent="GNZZoCPWk4IUXtnZ4bMh-4">
          <mxGeometry x="60" y="25" width="40" height="40" as="geometry" />
        </mxCell>
        <mxCell id="GNZZoCPWk4IUXtnZ4bMh-7" value="" style="group" vertex="1" connectable="0" parent="1">
          <mxGeometry x="1360" y="480" width="160" height="160" as="geometry" />
        </mxCell>
        <mxCell id="GNZZoCPWk4IUXtnZ4bMh-8" value="&lt;div&gt;&lt;br&gt;&lt;/div&gt;&lt;div&gt;Electro Pop&lt;br&gt;&lt;/div&gt;" style="rhombus;whiteSpace=wrap;html=1;" vertex="1" parent="GNZZoCPWk4IUXtnZ4bMh-7">
          <mxGeometry width="160" height="160" as="geometry" />
        </mxCell>
        <mxCell id="GNZZoCPWk4IUXtnZ4bMh-9" value="6" style="rhombus;whiteSpace=wrap;html=1;" vertex="1" parent="GNZZoCPWk4IUXtnZ4bMh-7">
          <mxGeometry x="60" y="25" width="40" height="40" as="geometry" />
        </mxCell>
        <mxCell id="GNZZoCPWk4IUXtnZ4bMh-10" value="" style="group" vertex="1" connectable="0" parent="1">
          <mxGeometry x="959" y="280" width="160" height="160" as="geometry" />
        </mxCell>
        <mxCell id="GNZZoCPWk4IUXtnZ4bMh-11" value="&lt;div&gt;&lt;br&gt;&lt;/div&gt;&lt;div&gt;Dreamy Melodies&lt;br&gt;&lt;/div&gt;" style="rhombus;whiteSpace=wrap;html=1;" vertex="1" parent="GNZZoCPWk4IUXtnZ4bMh-10">
          <mxGeometry width="160" height="160" as="geometry" />
        </mxCell>
        <mxCell id="GNZZoCPWk4IUXtnZ4bMh-12" value="3" style="rhombus;whiteSpace=wrap;html=1;" vertex="1" parent="GNZZoCPWk4IUXtnZ4bMh-10">
          <mxGeometry x="60" y="25" width="40" height="40" as="geometry" />
        </mxCell>
        <mxCell id="GNZZoCPWk4IUXtnZ4bMh-13" value="" style="group" vertex="1" connectable="0" parent="1">
          <mxGeometry x="559" y="280" width="160" height="160" as="geometry" />
        </mxCell>
        <mxCell id="GNZZoCPWk4IUXtnZ4bMh-14" value="&lt;div&gt;&lt;br&gt;&lt;/div&gt;&lt;div&gt;&lt;span style=&quot;background-color: initial;&quot;&gt;Summer Vibes&lt;/span&gt;&lt;br&gt;&lt;/div&gt;" style="rhombus;whiteSpace=wrap;html=1;" vertex="1" parent="GNZZoCPWk4IUXtnZ4bMh-13">
          <mxGeometry width="160" height="160" as="geometry" />
        </mxCell>
        <mxCell id="GNZZoCPWk4IUXtnZ4bMh-15" value="1" style="rhombus;whiteSpace=wrap;html=1;" vertex="1" parent="GNZZoCPWk4IUXtnZ4bMh-13">
          <mxGeometry x="60" y="25" width="40" height="40" as="geometry" />
        </mxCell>
        <mxCell id="GNZZoCPWk4IUXtnZ4bMh-16" value="" style="group" vertex="1" connectable="0" parent="1">
          <mxGeometry x="1159" y="280" width="160" height="160" as="geometry" />
        </mxCell>
        <mxCell id="GNZZoCPWk4IUXtnZ4bMh-17" value="&lt;div&gt;&lt;br&gt;&lt;/div&gt;&lt;div&gt;Funky Beats&lt;br&gt;&lt;/div&gt;" style="rhombus;whiteSpace=wrap;html=1;" vertex="1" parent="GNZZoCPWk4IUXtnZ4bMh-16">
          <mxGeometry width="160" height="160" as="geometry" />
        </mxCell>
        <mxCell id="GNZZoCPWk4IUXtnZ4bMh-18" value="4" style="rhombus;whiteSpace=wrap;html=1;" vertex="1" parent="GNZZoCPWk4IUXtnZ4bMh-16">
          <mxGeometry x="60" y="25" width="40" height="40" as="geometry" />
        </mxCell>
        <mxCell id="GNZZoCPWk4IUXtnZ4bMh-19" value="" style="group" vertex="1" connectable="0" parent="1">
          <mxGeometry x="1159" y="480" width="160" height="160" as="geometry" />
        </mxCell>
        <mxCell id="GNZZoCPWk4IUXtnZ4bMh-20" value="&lt;div&gt;&lt;br&gt;&lt;/div&gt;&lt;div&gt;Rock Anthem&lt;br&gt;&lt;/div&gt;" style="rhombus;whiteSpace=wrap;html=1;" vertex="1" parent="GNZZoCPWk4IUXtnZ4bMh-19">
          <mxGeometry width="160" height="160" as="geometry" />
        </mxCell>
        <mxCell id="GNZZoCPWk4IUXtnZ4bMh-21" value="8" style="rhombus;whiteSpace=wrap;html=1;" vertex="1" parent="GNZZoCPWk4IUXtnZ4bMh-19">
          <mxGeometry x="60" y="25" width="40" height="40" as="geometry" />
        </mxCell>
        <mxCell id="GNZZoCPWk4IUXtnZ4bMh-22" value="" style="group" vertex="1" connectable="0" parent="1">
          <mxGeometry x="1360" y="280" width="160" height="160" as="geometry" />
        </mxCell>
        <mxCell id="GNZZoCPWk4IUXtnZ4bMh-23" value="&lt;div&gt;&lt;br&gt;&lt;/div&gt;&lt;div&gt;Classical Sonata&lt;br&gt;&lt;/div&gt;" style="rhombus;whiteSpace=wrap;html=1;" vertex="1" parent="GNZZoCPWk4IUXtnZ4bMh-22">
          <mxGeometry width="160" height="160" as="geometry" />
        </mxCell>
        <mxCell id="GNZZoCPWk4IUXtnZ4bMh-24" value="10" style="rhombus;whiteSpace=wrap;html=1;" vertex="1" parent="GNZZoCPWk4IUXtnZ4bMh-22">
          <mxGeometry x="60" y="25" width="40" height="40" as="geometry" />
        </mxCell>
        <mxCell id="GNZZoCPWk4IUXtnZ4bMh-25" value="" style="group" vertex="1" connectable="0" parent="1">
          <mxGeometry x="959" y="480" width="160" height="160" as="geometry" />
        </mxCell>
        <mxCell id="GNZZoCPWk4IUXtnZ4bMh-26" value="&lt;div&gt;&lt;br&gt;&lt;/div&gt;&lt;div&gt;Acoustic Jam&lt;br&gt;&lt;/div&gt;" style="rhombus;whiteSpace=wrap;html=1;" vertex="1" parent="GNZZoCPWk4IUXtnZ4bMh-25">
          <mxGeometry width="160" height="160" as="geometry" />
        </mxCell>
        <mxCell id="GNZZoCPWk4IUXtnZ4bMh-27" value="7" style="rhombus;whiteSpace=wrap;html=1;" vertex="1" parent="GNZZoCPWk4IUXtnZ4bMh-25">
          <mxGeometry x="60" y="25" width="40" height="40" as="geometry" />
        </mxCell>
        <mxCell id="GNZZoCPWk4IUXtnZ4bMh-28" value="" style="group" vertex="1" connectable="0" parent="1">
          <mxGeometry x="759" y="480" width="160" height="160" as="geometry" />
        </mxCell>
        <mxCell id="GNZZoCPWk4IUXtnZ4bMh-29" value="&lt;div&gt;&lt;br&gt;&lt;/div&gt;&lt;div&gt;Hip Hop Hype&lt;br&gt;&lt;/div&gt;" style="rhombus;whiteSpace=wrap;html=1;" vertex="1" parent="GNZZoCPWk4IUXtnZ4bMh-28">
          <mxGeometry width="160" height="160" as="geometry" />
        </mxCell>
        <mxCell id="GNZZoCPWk4IUXtnZ4bMh-30" value="9" style="rhombus;whiteSpace=wrap;html=1;" vertex="1" parent="GNZZoCPWk4IUXtnZ4bMh-28">
          <mxGeometry x="60" y="25" width="40" height="40" as="geometry" />
        </mxCell>
        <mxCell id="GNZZoCPWk4IUXtnZ4bMh-32" value="" style="group" vertex="1" connectable="0" parent="1">
          <mxGeometry x="919" y="160" width="80" height="80" as="geometry" />
        </mxCell>
        <mxCell id="GNZZoCPWk4IUXtnZ4bMh-33" value="&lt;div&gt;&lt;br&gt;&lt;/div&gt;Jennifer Moritz" style="ellipse;whiteSpace=wrap;html=1;aspect=fixed;" vertex="1" parent="GNZZoCPWk4IUXtnZ4bMh-32">
          <mxGeometry width="80" height="80" as="geometry" />
        </mxCell>
        <mxCell id="GNZZoCPWk4IUXtnZ4bMh-34" value="6" style="ellipse;whiteSpace=wrap;html=1;aspect=fixed;" vertex="1" parent="GNZZoCPWk4IUXtnZ4bMh-32">
          <mxGeometry x="30" y="10" width="20" height="20" as="geometry" />
        </mxCell>
        <mxCell id="GNZZoCPWk4IUXtnZ4bMh-35" value="" style="group" vertex="1" connectable="0" parent="1">
          <mxGeometry x="400" y="520" width="80" height="80" as="geometry" />
        </mxCell>
        <mxCell id="GNZZoCPWk4IUXtnZ4bMh-36" value="&lt;div&gt;&lt;/div&gt;&lt;div&gt;&lt;br&gt;&lt;/div&gt;&lt;div&gt;John Smith&lt;br&gt;&lt;/div&gt;" style="ellipse;whiteSpace=wrap;html=1;aspect=fixed;" vertex="1" parent="GNZZoCPWk4IUXtnZ4bMh-35">
          <mxGeometry width="80" height="80" as="geometry" />
        </mxCell>
        <mxCell id="GNZZoCPWk4IUXtnZ4bMh-37" value="1" style="ellipse;whiteSpace=wrap;html=1;aspect=fixed;" vertex="1" parent="GNZZoCPWk4IUXtnZ4bMh-35">
          <mxGeometry x="30" y="10" width="20" height="20" as="geometry" />
        </mxCell>
        <mxCell id="GNZZoCPWk4IUXtnZ4bMh-38" value="" style="group" vertex="1" connectable="0" parent="1">
          <mxGeometry x="400" y="320" width="80" height="80" as="geometry" />
        </mxCell>
        <mxCell id="GNZZoCPWk4IUXtnZ4bMh-39" value="&lt;div&gt;&lt;/div&gt;&lt;div&gt;&lt;br&gt;&lt;/div&gt;&lt;div&gt;Linda Anderson&lt;br&gt;&lt;/div&gt;" style="ellipse;whiteSpace=wrap;html=1;aspect=fixed;" vertex="1" parent="GNZZoCPWk4IUXtnZ4bMh-38">
          <mxGeometry width="80" height="80" as="geometry" />
        </mxCell>
        <mxCell id="GNZZoCPWk4IUXtnZ4bMh-40" value="8" style="ellipse;whiteSpace=wrap;html=1;aspect=fixed;" vertex="1" parent="GNZZoCPWk4IUXtnZ4bMh-38">
          <mxGeometry x="30" y="10" width="20" height="20" as="geometry" />
        </mxCell>
        <mxCell id="GNZZoCPWk4IUXtnZ4bMh-41" value="" style="group" vertex="1" connectable="0" parent="1">
          <mxGeometry x="900" y="720" width="80" height="80" as="geometry" />
        </mxCell>
        <mxCell id="GNZZoCPWk4IUXtnZ4bMh-42" value="&lt;div&gt;&lt;/div&gt;&lt;div&gt;&lt;br&gt;&lt;/div&gt;&lt;div&gt;James Wilson&lt;br&gt;&lt;/div&gt;" style="ellipse;whiteSpace=wrap;html=1;aspect=fixed;" vertex="1" parent="GNZZoCPWk4IUXtnZ4bMh-41">
          <mxGeometry width="80" height="80" as="geometry" />
        </mxCell>
        <mxCell id="GNZZoCPWk4IUXtnZ4bMh-43" value="5" style="ellipse;whiteSpace=wrap;html=1;aspect=fixed;" vertex="1" parent="GNZZoCPWk4IUXtnZ4bMh-41">
          <mxGeometry x="30" y="10" width="20" height="20" as="geometry" />
        </mxCell>
        <mxCell id="GNZZoCPWk4IUXtnZ4bMh-45" value="" style="group" vertex="1" connectable="0" parent="1">
          <mxGeometry x="1319" y="160" width="80" height="80" as="geometry" />
        </mxCell>
        <mxCell id="GNZZoCPWk4IUXtnZ4bMh-46" value="&lt;div&gt;&lt;/div&gt;&lt;div&gt;&lt;br&gt;&lt;/div&gt;&lt;div&gt;Robert Taylor&lt;br&gt;&lt;/div&gt;" style="ellipse;whiteSpace=wrap;html=1;aspect=fixed;" vertex="1" parent="GNZZoCPWk4IUXtnZ4bMh-45">
          <mxGeometry width="80" height="80" as="geometry" />
        </mxCell>
        <mxCell id="GNZZoCPWk4IUXtnZ4bMh-47" value="7" style="ellipse;whiteSpace=wrap;html=1;aspect=fixed;" vertex="1" parent="GNZZoCPWk4IUXtnZ4bMh-45">
          <mxGeometry x="30" y="10" width="20" height="20" as="geometry" />
        </mxCell>
        <mxCell id="GNZZoCPWk4IUXtnZ4bMh-48" value="" style="group" vertex="1" connectable="0" parent="1">
          <mxGeometry x="599" y="720" width="80" height="80" as="geometry" />
        </mxCell>
        <mxCell id="GNZZoCPWk4IUXtnZ4bMh-49" value="&lt;div&gt;&lt;/div&gt;&lt;div&gt;&lt;br&gt;&lt;/div&gt;&lt;div&gt;William Thomas&lt;br&gt;&lt;/div&gt;" style="ellipse;whiteSpace=wrap;html=1;aspect=fixed;" vertex="1" parent="GNZZoCPWk4IUXtnZ4bMh-48">
          <mxGeometry width="80" height="80" as="geometry" />
        </mxCell>
        <mxCell id="GNZZoCPWk4IUXtnZ4bMh-50" value="9" style="ellipse;whiteSpace=wrap;html=1;aspect=fixed;" vertex="1" parent="GNZZoCPWk4IUXtnZ4bMh-48">
          <mxGeometry x="30" y="10" width="20" height="20" as="geometry" />
        </mxCell>
        <mxCell id="GNZZoCPWk4IUXtnZ4bMh-51" value="" style="group" vertex="1" connectable="0" parent="1">
          <mxGeometry x="1600" y="320" width="80" height="80" as="geometry" />
        </mxCell>
        <mxCell id="GNZZoCPWk4IUXtnZ4bMh-52" value="&lt;div&gt;&lt;/div&gt;&lt;div&gt;&lt;br&gt;&lt;/div&gt;&lt;div&gt;Emily Johnson&lt;br&gt;&lt;/div&gt;" style="ellipse;whiteSpace=wrap;html=1;aspect=fixed;" vertex="1" parent="GNZZoCPWk4IUXtnZ4bMh-51">
          <mxGeometry width="80" height="80" as="geometry" />
        </mxCell>
        <mxCell id="GNZZoCPWk4IUXtnZ4bMh-53" value="2" style="ellipse;whiteSpace=wrap;html=1;aspect=fixed;" vertex="1" parent="GNZZoCPWk4IUXtnZ4bMh-51">
          <mxGeometry x="30" y="10" width="20" height="20" as="geometry" />
        </mxCell>
        <mxCell id="GNZZoCPWk4IUXtnZ4bMh-54" value="" style="group" vertex="1" connectable="0" parent="1">
          <mxGeometry x="1119" y="160" width="80" height="80" as="geometry" />
        </mxCell>
        <mxCell id="GNZZoCPWk4IUXtnZ4bMh-55" value="&lt;div&gt;&lt;/div&gt;&lt;div&gt;&lt;br&gt;&lt;/div&gt;&lt;div&gt;Karen Clark&lt;br&gt;&lt;/div&gt;" style="ellipse;whiteSpace=wrap;html=1;aspect=fixed;" vertex="1" parent="GNZZoCPWk4IUXtnZ4bMh-54">
          <mxGeometry width="80" height="80" as="geometry" />
        </mxCell>
        <mxCell id="GNZZoCPWk4IUXtnZ4bMh-56" value="10" style="ellipse;whiteSpace=wrap;html=1;aspect=fixed;" vertex="1" parent="GNZZoCPWk4IUXtnZ4bMh-54">
          <mxGeometry x="30" y="10" width="20" height="20" as="geometry" />
        </mxCell>
        <mxCell id="GNZZoCPWk4IUXtnZ4bMh-57" value="" style="group" vertex="1" connectable="0" parent="1">
          <mxGeometry x="599" y="160" width="80" height="80" as="geometry" />
        </mxCell>
        <mxCell id="GNZZoCPWk4IUXtnZ4bMh-58" value="&lt;div&gt;&lt;/div&gt;&lt;div&gt;&lt;br&gt;&lt;/div&gt;&lt;div&gt;Sarah Davis&lt;br&gt;&lt;/div&gt;" style="ellipse;whiteSpace=wrap;html=1;aspect=fixed;" vertex="1" parent="GNZZoCPWk4IUXtnZ4bMh-57">
          <mxGeometry width="80" height="80" as="geometry" />
        </mxCell>
        <mxCell id="GNZZoCPWk4IUXtnZ4bMh-59" value="4" style="ellipse;whiteSpace=wrap;html=1;aspect=fixed;" vertex="1" parent="GNZZoCPWk4IUXtnZ4bMh-57">
          <mxGeometry x="30" y="10" width="20" height="20" as="geometry" />
        </mxCell>
        <mxCell id="GNZZoCPWk4IUXtnZ4bMh-60" value="" style="group" vertex="1" connectable="0" parent="1">
          <mxGeometry x="1280" y="720" width="80" height="80" as="geometry" />
        </mxCell>
        <mxCell id="GNZZoCPWk4IUXtnZ4bMh-61" value="&lt;div&gt;&lt;/div&gt;&lt;div&gt;&lt;br&gt;&lt;/div&gt;&lt;div&gt;Michael Brown&lt;br&gt;&lt;/div&gt;" style="ellipse;whiteSpace=wrap;html=1;aspect=fixed;" vertex="1" parent="GNZZoCPWk4IUXtnZ4bMh-60">
          <mxGeometry width="80" height="80" as="geometry" />
        </mxCell>
        <mxCell id="GNZZoCPWk4IUXtnZ4bMh-62" value="3" style="ellipse;whiteSpace=wrap;html=1;aspect=fixed;" vertex="1" parent="GNZZoCPWk4IUXtnZ4bMh-60">
          <mxGeometry x="30" y="10" width="20" height="20" as="geometry" />
        </mxCell>
        <mxCell id="GNZZoCPWk4IUXtnZ4bMh-75" value="" style="endArrow=classic;html=1;rounded=0;entryX=0.5;entryY=0;entryDx=0;entryDy=0;" edge="1" parent="1" target="GNZZoCPWk4IUXtnZ4bMh-14">
          <mxGeometry relative="1" as="geometry">
            <mxPoint x="639" y="220" as="sourcePoint" />
            <mxPoint x="950" y="170" as="targetPoint" />
          </mxGeometry>
        </mxCell>
        <mxCell id="GNZZoCPWk4IUXtnZ4bMh-76" value="9" style="edgeLabel;resizable=0;html=1;;align=center;verticalAlign=middle;" connectable="0" vertex="1" parent="GNZZoCPWk4IUXtnZ4bMh-75">
          <mxGeometry relative="1" as="geometry" />
        </mxCell>
        <mxCell id="GNZZoCPWk4IUXtnZ4bMh-79" value="" style="endArrow=classic;html=1;rounded=0;entryX=0.5;entryY=0;entryDx=0;entryDy=0;exitX=0.5;exitY=1;exitDx=0;exitDy=0;" edge="1" parent="1" source="GNZZoCPWk4IUXtnZ4bMh-33" target="GNZZoCPWk4IUXtnZ4bMh-2">
          <mxGeometry relative="1" as="geometry">
            <mxPoint x="759" y="220" as="sourcePoint" />
            <mxPoint x="859" y="220" as="targetPoint" />
          </mxGeometry>
        </mxCell>
        <mxCell id="GNZZoCPWk4IUXtnZ4bMh-80" value="7" style="edgeLabel;resizable=0;html=1;;align=center;verticalAlign=middle;" connectable="0" vertex="1" parent="GNZZoCPWk4IUXtnZ4bMh-79">
          <mxGeometry relative="1" as="geometry" />
        </mxCell>
        <mxCell id="GNZZoCPWk4IUXtnZ4bMh-81" value="" style="endArrow=classic;html=1;rounded=0;exitX=0.5;exitY=1;exitDx=0;exitDy=0;entryX=0.5;entryY=0;entryDx=0;entryDy=0;" edge="1" parent="1" source="GNZZoCPWk4IUXtnZ4bMh-33" target="GNZZoCPWk4IUXtnZ4bMh-11">
          <mxGeometry relative="1" as="geometry">
            <mxPoint x="660" y="570" as="sourcePoint" />
            <mxPoint x="760" y="570" as="targetPoint" />
          </mxGeometry>
        </mxCell>
        <mxCell id="GNZZoCPWk4IUXtnZ4bMh-82" value="10" style="edgeLabel;resizable=0;html=1;;align=center;verticalAlign=middle;" connectable="0" vertex="1" parent="GNZZoCPWk4IUXtnZ4bMh-81">
          <mxGeometry relative="1" as="geometry" />
        </mxCell>
        <mxCell id="GNZZoCPWk4IUXtnZ4bMh-84" value="" style="endArrow=classic;html=1;rounded=0;exitX=1;exitY=0.5;exitDx=0;exitDy=0;entryX=0;entryY=0.5;entryDx=0;entryDy=0;" edge="1" parent="1" source="GNZZoCPWk4IUXtnZ4bMh-36" target="GNZZoCPWk4IUXtnZ4bMh-5">
          <mxGeometry relative="1" as="geometry">
            <mxPoint x="540" y="580" as="sourcePoint" />
            <mxPoint x="640" y="580" as="targetPoint" />
          </mxGeometry>
        </mxCell>
        <mxCell id="GNZZoCPWk4IUXtnZ4bMh-85" value="9" style="edgeLabel;resizable=0;html=1;;align=center;verticalAlign=middle;" connectable="0" vertex="1" parent="GNZZoCPWk4IUXtnZ4bMh-84">
          <mxGeometry relative="1" as="geometry" />
        </mxCell>
        <mxCell id="GNZZoCPWk4IUXtnZ4bMh-89" value="" style="endArrow=classic;html=1;rounded=0;exitX=1;exitY=0.5;exitDx=0;exitDy=0;" edge="1" parent="1" source="GNZZoCPWk4IUXtnZ4bMh-39">
          <mxGeometry relative="1" as="geometry">
            <mxPoint x="720" y="560" as="sourcePoint" />
            <mxPoint x="560" y="360" as="targetPoint" />
          </mxGeometry>
        </mxCell>
        <mxCell id="GNZZoCPWk4IUXtnZ4bMh-90" value="10" style="edgeLabel;resizable=0;html=1;;align=center;verticalAlign=middle;" connectable="0" vertex="1" parent="GNZZoCPWk4IUXtnZ4bMh-89">
          <mxGeometry relative="1" as="geometry" />
        </mxCell>
        <mxCell id="GNZZoCPWk4IUXtnZ4bMh-92" value="" style="endArrow=classic;html=1;rounded=0;exitX=0.5;exitY=0;exitDx=0;exitDy=0;entryX=0.5;entryY=1;entryDx=0;entryDy=0;" edge="1" parent="1" source="GNZZoCPWk4IUXtnZ4bMh-49" target="GNZZoCPWk4IUXtnZ4bMh-5">
          <mxGeometry relative="1" as="geometry">
            <mxPoint x="720" y="480" as="sourcePoint" />
            <mxPoint x="820" y="480" as="targetPoint" />
          </mxGeometry>
        </mxCell>
        <mxCell id="GNZZoCPWk4IUXtnZ4bMh-93" value="5" style="edgeLabel;resizable=0;html=1;;align=center;verticalAlign=middle;" connectable="0" vertex="1" parent="GNZZoCPWk4IUXtnZ4bMh-92">
          <mxGeometry relative="1" as="geometry" />
        </mxCell>
        <mxCell id="GNZZoCPWk4IUXtnZ4bMh-94" value="" style="endArrow=classic;html=1;rounded=0;exitX=0.5;exitY=0;exitDx=0;exitDy=0;entryX=0.5;entryY=1;entryDx=0;entryDy=0;" edge="1" parent="1" source="GNZZoCPWk4IUXtnZ4bMh-42" target="GNZZoCPWk4IUXtnZ4bMh-29">
          <mxGeometry relative="1" as="geometry">
            <mxPoint x="970" y="480" as="sourcePoint" />
            <mxPoint x="1070" y="480" as="targetPoint" />
          </mxGeometry>
        </mxCell>
        <mxCell id="GNZZoCPWk4IUXtnZ4bMh-95" value="10" style="edgeLabel;resizable=0;html=1;;align=center;verticalAlign=middle;" connectable="0" vertex="1" parent="GNZZoCPWk4IUXtnZ4bMh-94">
          <mxGeometry relative="1" as="geometry" />
        </mxCell>
        <mxCell id="GNZZoCPWk4IUXtnZ4bMh-96" value="" style="endArrow=classic;html=1;rounded=0;exitX=0.5;exitY=0;exitDx=0;exitDy=0;entryX=0.5;entryY=1;entryDx=0;entryDy=0;" edge="1" parent="1" source="GNZZoCPWk4IUXtnZ4bMh-42" target="GNZZoCPWk4IUXtnZ4bMh-26">
          <mxGeometry relative="1" as="geometry">
            <mxPoint x="970" y="480" as="sourcePoint" />
            <mxPoint x="1070" y="480" as="targetPoint" />
          </mxGeometry>
        </mxCell>
        <mxCell id="GNZZoCPWk4IUXtnZ4bMh-97" value="7" style="edgeLabel;resizable=0;html=1;;align=center;verticalAlign=middle;" connectable="0" vertex="1" parent="GNZZoCPWk4IUXtnZ4bMh-96">
          <mxGeometry relative="1" as="geometry" />
        </mxCell>
        <mxCell id="GNZZoCPWk4IUXtnZ4bMh-99" value="" style="endArrow=classic;html=1;rounded=0;exitX=0.5;exitY=0;exitDx=0;exitDy=0;entryX=0.5;entryY=1;entryDx=0;entryDy=0;" edge="1" parent="1" source="GNZZoCPWk4IUXtnZ4bMh-61" target="GNZZoCPWk4IUXtnZ4bMh-20">
          <mxGeometry relative="1" as="geometry">
            <mxPoint x="1160" y="540" as="sourcePoint" />
            <mxPoint x="1260" y="540" as="targetPoint" />
          </mxGeometry>
        </mxCell>
        <mxCell id="GNZZoCPWk4IUXtnZ4bMh-100" value="7" style="edgeLabel;resizable=0;html=1;;align=center;verticalAlign=middle;" connectable="0" vertex="1" parent="GNZZoCPWk4IUXtnZ4bMh-99">
          <mxGeometry relative="1" as="geometry" />
        </mxCell>
        <mxCell id="GNZZoCPWk4IUXtnZ4bMh-101" value="" style="endArrow=classic;html=1;rounded=0;exitX=0.5;exitY=0;exitDx=0;exitDy=0;entryX=0.5;entryY=1;entryDx=0;entryDy=0;" edge="1" parent="1" source="GNZZoCPWk4IUXtnZ4bMh-61" target="GNZZoCPWk4IUXtnZ4bMh-8">
          <mxGeometry relative="1" as="geometry">
            <mxPoint x="1160" y="540" as="sourcePoint" />
            <mxPoint x="1260" y="540" as="targetPoint" />
          </mxGeometry>
        </mxCell>
        <mxCell id="GNZZoCPWk4IUXtnZ4bMh-102" value="10" style="edgeLabel;resizable=0;html=1;;align=center;verticalAlign=middle;" connectable="0" vertex="1" parent="GNZZoCPWk4IUXtnZ4bMh-101">
          <mxGeometry relative="1" as="geometry" />
        </mxCell>
        <mxCell id="GNZZoCPWk4IUXtnZ4bMh-103" value="" style="endArrow=classic;html=1;rounded=0;exitX=0.5;exitY=1;exitDx=0;exitDy=0;entryX=0.462;entryY=0.002;entryDx=0;entryDy=0;entryPerimeter=0;" edge="1" parent="1" source="GNZZoCPWk4IUXtnZ4bMh-55" target="GNZZoCPWk4IUXtnZ4bMh-11">
          <mxGeometry relative="1" as="geometry">
            <mxPoint x="1030" y="280" as="sourcePoint" />
            <mxPoint x="1230" y="230" as="targetPoint" />
          </mxGeometry>
        </mxCell>
        <mxCell id="GNZZoCPWk4IUXtnZ4bMh-104" value="10" style="edgeLabel;resizable=0;html=1;;align=center;verticalAlign=middle;" connectable="0" vertex="1" parent="GNZZoCPWk4IUXtnZ4bMh-103">
          <mxGeometry relative="1" as="geometry" />
        </mxCell>
        <mxCell id="GNZZoCPWk4IUXtnZ4bMh-106" value="" style="endArrow=classic;html=1;rounded=0;exitX=0.5;exitY=1;exitDx=0;exitDy=0;entryX=0.5;entryY=0;entryDx=0;entryDy=0;" edge="1" parent="1" source="GNZZoCPWk4IUXtnZ4bMh-55" target="GNZZoCPWk4IUXtnZ4bMh-17">
          <mxGeometry relative="1" as="geometry">
            <mxPoint x="1040" y="190" as="sourcePoint" />
            <mxPoint x="1140" y="190" as="targetPoint" />
          </mxGeometry>
        </mxCell>
        <mxCell id="GNZZoCPWk4IUXtnZ4bMh-107" value="9" style="edgeLabel;resizable=0;html=1;;align=center;verticalAlign=middle;" connectable="0" vertex="1" parent="GNZZoCPWk4IUXtnZ4bMh-106">
          <mxGeometry relative="1" as="geometry" />
        </mxCell>
        <mxCell id="GNZZoCPWk4IUXtnZ4bMh-111" value="" style="endArrow=classic;html=1;rounded=0;exitX=0;exitY=0.5;exitDx=0;exitDy=0;entryX=1;entryY=0.5;entryDx=0;entryDy=0;" edge="1" parent="1" source="GNZZoCPWk4IUXtnZ4bMh-52" target="GNZZoCPWk4IUXtnZ4bMh-23">
          <mxGeometry relative="1" as="geometry">
            <mxPoint x="1400" y="410" as="sourcePoint" />
            <mxPoint x="1500" y="410" as="targetPoint" />
          </mxGeometry>
        </mxCell>
        <mxCell id="GNZZoCPWk4IUXtnZ4bMh-112" value="7" style="edgeLabel;resizable=0;html=1;;align=center;verticalAlign=middle;" connectable="0" vertex="1" parent="GNZZoCPWk4IUXtnZ4bMh-111">
          <mxGeometry relative="1" as="geometry" />
        </mxCell>
        <mxCell id="GNZZoCPWk4IUXtnZ4bMh-113" value="" style="endArrow=classic;html=1;rounded=0;exitX=0.57;exitY=0.996;exitDx=0;exitDy=0;exitPerimeter=0;entryX=0.5;entryY=0;entryDx=0;entryDy=0;" edge="1" parent="1" source="GNZZoCPWk4IUXtnZ4bMh-46" target="GNZZoCPWk4IUXtnZ4bMh-17">
          <mxGeometry relative="1" as="geometry">
            <mxPoint x="1240" y="410" as="sourcePoint" />
            <mxPoint x="1340" y="410" as="targetPoint" />
          </mxGeometry>
        </mxCell>
        <mxCell id="GNZZoCPWk4IUXtnZ4bMh-114" value="10" style="edgeLabel;resizable=0;html=1;;align=center;verticalAlign=middle;" connectable="0" vertex="1" parent="GNZZoCPWk4IUXtnZ4bMh-113">
          <mxGeometry relative="1" as="geometry" />
        </mxCell>
        <mxCell id="GNZZoCPWk4IUXtnZ4bMh-115" value="" style="endArrow=classic;html=1;rounded=0;exitX=0.5;exitY=1;exitDx=0;exitDy=0;entryX=0.5;entryY=0;entryDx=0;entryDy=0;" edge="1" parent="1" source="GNZZoCPWk4IUXtnZ4bMh-46" target="GNZZoCPWk4IUXtnZ4bMh-23">
          <mxGeometry relative="1" as="geometry">
            <mxPoint x="1240" y="410" as="sourcePoint" />
            <mxPoint x="1340" y="410" as="targetPoint" />
          </mxGeometry>
        </mxCell>
        <mxCell id="GNZZoCPWk4IUXtnZ4bMh-116" value="7" style="edgeLabel;resizable=0;html=1;;align=center;verticalAlign=middle;" connectable="0" vertex="1" parent="GNZZoCPWk4IUXtnZ4bMh-115">
          <mxGeometry relative="1" as="geometry" />
        </mxCell>
      </root>
    </mxGraphModel>
  </diagram>
</mxfile>
